<svg width="25" height="29" viewBox="0 0 25 29" fill="none" xmlns="http://www.w3.org/2000/svg">
<path d="M5.83333 8.33333C5.61232 8.33333 5.40036 8.42113 5.24408 8.57741C5.0878 8.73369 5 8.94565 5 9.16667C5 9.38768 5.0878 9.59964 5.24408 9.75592C5.40036 9.9122 5.61232 10 5.83333 10H14.1667C14.3877 10 14.5996 9.9122 14.7559 9.75592C14.9122 9.59964 15 9.38768 15 9.16667C15 8.94565 14.9122 8.73369 14.7559 8.57741C14.5996 8.42113 14.3877 8.33333 14.1667 8.33333H5.83333ZM5 14.1667C5 13.9457 5.0878 13.7337 5.24408 13.5774C5.40036 13.4211 5.61232 13.3333 5.83333 13.3333H13.6167C13.4333 13.855 13.3333 14.4167 13.3333 15H5.83333C5.61232 15 5.40036 14.9122 5.24408 14.7559C5.0878 14.5996 5 14.3877 5 14.1667ZM18.3333 4.16667V10C18.9167 10 19.4783 10.1 20 10.285V4.16667C20 3.50363 19.7366 2.86774 19.2678 2.3989C18.7989 1.93006 18.163 1.66667 17.5 1.66667H16.6667V0.833333C16.6667 0.61232 16.5789 0.400358 16.4226 0.244078C16.2663 0.0877975 16.0543 0 15.8333 0C15.6123 0 15.4004 0.0877975 15.2441 0.244078C15.0878 0.400358 15 0.61232 15 0.833333V1.66667H10.8333V0.833333C10.8333 0.61232 10.7455 0.400358 10.5893 0.244078C10.433 0.0877975 10.221 0 10 0C9.77899 0 9.56702 0.0877975 9.41074 0.244078C9.25446 0.400358 9.16667 0.61232 9.16667 0.833333V1.66667H5V0.833333C5 0.61232 4.9122 0.400358 4.75592 0.244078C4.59964 0.0877975 4.38768 0 4.16667 0C3.94565 0 3.73369 0.0877975 3.57741 0.244078C3.42113 0.400358 3.33333 0.61232 3.33333 0.833333V1.66667H2.5C1.83696 1.66667 1.20107 1.93006 0.732233 2.3989C0.263392 2.86774 0 3.50363 0 4.16667V24.1667C0 24.8297 0.263392 25.4656 0.732233 25.9344C1.20107 26.4033 1.83696 26.6667 2.5 26.6667H11.25C10.8951 26.1519 10.6119 25.5912 10.4083 25H2.5C2.27899 25 2.06702 24.9122 1.91074 24.7559C1.75446 24.5996 1.66667 24.3877 1.66667 24.1667V4.16667C1.66667 3.94565 1.75446 3.73369 1.91074 3.57741C2.06702 3.42113 2.27899 3.33333 2.5 3.33333H17.5C17.721 3.33333 17.933 3.42113 18.0893 3.57741C18.2455 3.73369 18.3333 3.94565 18.3333 4.16667ZM5.83333 18.3333C5.61232 18.3333 5.40036 18.4211 5.24408 18.5774C5.0878 18.7337 5 18.9457 5 19.1667C5 19.3877 5.0878 19.5996 5.24408 19.7559C5.40036 19.9122 5.61232 20 5.83333 20H9.16667C9.38768 20 9.59964 19.9122 9.75592 19.7559C9.9122 19.5996 10 19.3877 10 19.1667C10 18.9457 9.9122 18.7337 9.75592 18.5774C9.59964 18.4211 9.38768 18.3333 9.16667 18.3333H5.83333ZM21.6667 15C21.681 14.5536 21.6055 14.1089 21.4446 13.6923C21.2838 13.2756 21.0408 12.8956 20.7302 12.5747C20.4196 12.2538 20.0477 11.9986 19.6365 11.8242C19.2253 11.6498 18.7833 11.5598 18.3367 11.5596C17.8901 11.5594 17.448 11.6489 17.0367 11.8229C16.6253 11.9968 16.2532 12.2517 15.9422 12.5723C15.6313 12.8929 15.388 13.2727 15.2267 13.6892C15.0654 14.1056 14.9894 14.5503 15.0033 14.9967C15.0303 15.8621 15.3929 16.683 16.0144 17.2858C16.6359 17.8886 17.4676 18.2259 18.3334 18.2263C19.1992 18.2267 20.0312 17.8903 20.6533 17.2881C21.2754 16.686 21.6389 15.8654 21.6667 15ZM11.6667 22.5C11.6667 22.7867 11.6833 23.065 11.72 23.3333C11.8846 24.7219 12.5915 25.989 13.6867 26.8583C14.9217 27.85 16.5783 28.3333 18.3333 28.3333C20.0883 28.3333 21.745 27.85 22.98 26.8583C24.2333 25.85 25 24.36 25 22.5C25 21.837 24.7366 21.2011 24.2678 20.7322C23.7989 20.2634 23.163 20 22.5 20H14.1667C13.5036 20 12.8677 20.2634 12.3989 20.7322C11.9301 21.2011 11.6667 21.837 11.6667 22.5Z" fill="#CBCBCB"/>
</svg>
