<svg width="50" height="57" viewBox="0 0 50 57" fill="none" xmlns="http://www.w3.org/2000/svg">
<path d="M11.6667 16.6667C11.2246 16.6667 10.8007 16.8423 10.4882 17.1548C10.1756 17.4674 10 17.8913 10 18.3333C10 18.7754 10.1756 19.1993 10.4882 19.5118C10.8007 19.8244 11.2246 20 11.6667 20H28.3333C28.7754 20 29.1993 19.8244 29.5118 19.5118C29.8244 19.1993 30 18.7754 30 18.3333C30 17.8913 29.8244 17.4674 29.5118 17.1548C29.1993 16.8423 28.7754 16.6667 28.3333 16.6667H11.6667ZM10 28.3333C10 27.8913 10.1756 27.4674 10.4882 27.1548C10.8007 26.8423 11.2246 26.6667 11.6667 26.6667H27.2333C26.8667 27.71 26.6667 28.8333 26.6667 30H11.6667C11.2246 30 10.8007 29.8244 10.4882 29.5118C10.1756 29.1993 10 28.7754 10 28.3333ZM36.6667 8.33333V20C37.8333 20 38.9567 20.2 40 20.57V8.33333C40 7.00725 39.4732 5.73548 38.5355 4.7978C37.5979 3.86012 36.3261 3.33333 35 3.33333H33.3333V1.66667C33.3333 1.22464 33.1577 0.800716 32.8452 0.488156C32.5326 0.175595 32.1087 0 31.6667 0C31.2246 0 30.8007 0.175595 30.4882 0.488156C30.1756 0.800716 30 1.22464 30 1.66667V3.33333H21.6667V1.66667C21.6667 1.22464 21.4911 0.800716 21.1785 0.488156C20.866 0.175595 20.442 0 20 0C19.558 0 19.134 0.175595 18.8215 0.488156C18.5089 0.800716 18.3333 1.22464 18.3333 1.66667V3.33333H10V1.66667C10 1.22464 9.8244 0.800716 9.51184 0.488156C9.19928 0.175595 8.77536 0 8.33333 0C7.89131 0 7.46738 0.175595 7.15482 0.488156C6.84226 0.800716 6.66667 1.22464 6.66667 1.66667V3.33333H5C3.67392 3.33333 2.40215 3.86012 1.46447 4.7978C0.526784 5.73548 0 7.00725 0 8.33333V48.3333C0 49.6594 0.526784 50.9312 1.46447 51.8689C2.40215 52.8065 3.67392 53.3333 5 53.3333H22.5C21.7902 52.3038 21.2239 51.1824 20.8167 50H5C4.55797 50 4.13405 49.8244 3.82149 49.5118C3.50893 49.1993 3.33333 48.7754 3.33333 48.3333V8.33333C3.33333 7.89131 3.50893 7.46738 3.82149 7.15482C4.13405 6.84226 4.55797 6.66667 5 6.66667H35C35.442 6.66667 35.866 6.84226 36.1785 7.15482C36.4911 7.46738 36.6667 7.89131 36.6667 8.33333ZM11.6667 36.6667C11.2246 36.6667 10.8007 36.8423 10.4882 37.1548C10.1756 37.4674 10 37.8913 10 38.3333C10 38.7754 10.1756 39.1993 10.4882 39.5118C10.8007 39.8244 11.2246 40 11.6667 40H18.3333C18.7754 40 19.1993 39.8244 19.5118 39.5118C19.8244 39.1993 20 38.7754 20 38.3333C20 37.8913 19.8244 37.4674 19.5118 37.1548C19.1993 36.8423 18.7754 36.6667 18.3333 36.6667H11.6667ZM43.3333 30C43.362 29.1072 43.211 28.2178 42.8893 27.3846C42.5675 26.5513 42.0816 25.7912 41.4604 25.1494C40.8392 24.5075 40.0953 23.9971 39.273 23.6484C38.4507 23.2996 37.5667 23.1197 36.6734 23.1192C35.7802 23.1188 34.896 23.2978 34.0733 23.6458C33.2507 23.9937 32.5063 24.5034 31.8844 25.1446C31.2626 25.7858 30.7759 26.5454 30.4533 27.3783C30.1308 28.2113 29.9789 29.1005 30.0067 29.9933C30.0605 31.7241 30.7857 33.366 32.0288 34.5716C33.2718 35.7771 34.9352 36.4517 36.6668 36.4526C38.3984 36.4534 40.0624 35.7805 41.3066 34.5762C42.5509 33.3719 43.2777 31.7307 43.3333 30ZM23.3333 45C23.3333 45.5733 23.3667 46.13 23.44 46.6667C23.7692 49.4437 25.1831 51.978 27.3733 53.7167C29.8433 55.7 33.1567 56.6667 36.6667 56.6667C40.1767 56.6667 43.49 55.7 45.96 53.7167C48.4667 51.7 50 48.72 50 45C50 43.6739 49.4732 42.4021 48.5355 41.4645C47.5978 40.5268 46.3261 40 45 40H28.3333C27.0072 40 25.7355 40.5268 24.7978 41.4645C23.8601 42.4021 23.3333 43.6739 23.3333 45Z" fill="#7F3F98"/>
</svg>
