<svg width="50" height="50" viewBox="0 0 50 50" fill="none" xmlns="http://www.w3.org/2000/svg">
<path d="M22.7198 22.7188C21.4597 23.9788 21.4597 26.0212 22.7198 27.2802C23.9788 28.5403 26.0222 28.5403 27.2812 27.2802C28.5413 26.0202 28.5413 23.9778 27.2812 22.7188C26.0212 21.4597 23.9788 21.4597 22.7198 22.7188ZM25 0C11.1925 0 0 11.1925 0 25C0 38.8075 11.1925 50 25 50C38.8075 50 50 38.8075 50 25C50 11.1925 38.8075 0 25 0ZM37.7157 14.9244L31.0655 29.4758C30.7439 30.1795 30.1795 30.7439 29.4758 31.0655L14.9254 37.7157C13.247 38.4829 11.5171 36.753 12.2843 35.0746L18.9355 20.5232C19.2571 19.8195 19.8215 19.2551 20.5252 18.9335L35.0756 12.2833C36.754 11.5171 38.4829 13.246 37.7157 14.9244Z" fill="#7F3F98"/>
</svg>
