<svg width="130" height="130" viewBox="0 0 130 130" fill="none" xmlns="http://www.w3.org/2000/svg">
<circle cx="65" cy="65" r="64.75" fill="white" stroke="#C4C4C4" stroke-width="0.5"/>
<path d="M103.61 66.3522C103.61 82.2442 88.8858 95.1272 70.7247 95.1272C67.4675 95.1316 64.2239 94.7087 61.0768 93.8694C58.6761 95.0861 53.1637 97.421 43.8899 98.942C43.0677 99.0735 42.4429 98.2185 42.7676 97.4539C44.2228 94.0173 45.5383 89.438 45.9329 85.2615C40.8973 80.2053 37.8389 73.5871 37.8389 66.3522C37.8389 50.4601 52.5635 37.5771 70.7247 37.5771C88.8858 37.5771 103.61 50.4601 103.61 66.3522ZM56.3371 54.02C55.792 54.02 55.2692 54.2366 54.8838 54.622C54.4983 55.0075 54.2818 55.5303 54.2818 56.0754C54.2818 56.6205 54.4983 57.1433 54.8838 57.5288C55.2692 57.9142 55.792 58.1308 56.3371 58.1308H85.1122C85.6573 58.1308 86.1801 57.9142 86.5655 57.5288C86.951 57.1433 87.1675 56.6205 87.1675 56.0754C87.1675 55.5303 86.951 55.0075 86.5655 54.622C86.1801 54.2366 85.6573 54.02 85.1122 54.02H56.3371ZM56.3371 64.2968C55.792 64.2968 55.2692 64.5134 54.8838 64.8988C54.4983 65.2843 54.2818 65.8071 54.2818 66.3522C54.2818 66.8973 54.4983 67.4201 54.8838 67.8056C55.2692 68.191 55.792 68.4076 56.3371 68.4076H85.1122C85.6573 68.4076 86.1801 68.191 86.5655 67.8056C86.951 67.4201 87.1675 66.8973 87.1675 66.3522C87.1675 65.8071 86.951 65.2843 86.5655 64.8988C86.1801 64.5134 85.6573 64.2968 85.1122 64.2968H56.3371ZM56.3371 74.5736C55.792 74.5736 55.2692 74.7902 54.8838 75.1756C54.4983 75.5611 54.2818 76.0839 54.2818 76.629C54.2818 77.1741 54.4983 77.6969 54.8838 78.0824C55.2692 78.4678 55.792 78.6844 56.3371 78.6844H72.78C73.3251 78.6844 73.8479 78.4678 74.2334 78.0824C74.6188 77.6969 74.8354 77.1741 74.8354 76.629C74.8354 76.0839 74.6188 75.5611 74.2334 75.1756C73.8479 74.7902 73.3251 74.5736 72.78 74.5736H56.3371Z" fill="#4D6D8A" fill-opacity="0.35"/>
<path d="M50.6643 81.3152V51.3892H91.4427V81.3152H50.6643Z" fill="#D0E4C8"/>
<path d="M37.0085 75.7822C37.4352 76.2105 37.7621 76.7277 37.9661 77.2968C38.17 77.8659 38.2459 78.4731 38.1883 79.0749C37.8994 81.8602 37.3517 84.6126 36.5522 87.2963C42.2867 85.9686 45.789 84.4312 47.3799 83.6255C48.2822 83.1684 49.3213 83.0601 50.2985 83.3213C53.0997 84.068 55.9867 84.444 58.8858 84.4394C75.3122 84.4394 87.6608 72.9006 87.6608 59.775C87.6608 46.6536 75.3122 35.1107 58.8858 35.1107C42.4593 35.1107 30.1107 46.6536 30.1107 59.775C30.1107 65.8096 32.647 71.4084 37.0085 75.7822ZM34.9819 91.8346C34.008 92.0276 33.0308 92.2044 32.051 92.3648C31.2288 92.4964 30.604 91.6414 30.9288 90.8768C31.2938 90.016 31.6283 89.1426 31.9318 88.2582L31.9441 88.2171C32.9636 85.2574 33.7939 81.8537 34.0981 78.6844C29.0543 73.6282 26 67.0099 26 59.775C26 43.883 40.7246 31 58.8858 31C77.0469 31 91.7715 43.883 91.7715 59.775C91.7715 75.6671 77.0469 88.5501 58.8858 88.5501C55.6286 88.5545 52.385 88.1316 49.2379 87.2922C47.1003 88.3733 42.5004 90.3424 34.9819 91.8346Z" fill="#4D6D8A"/>
<path d="M42.4429 49.4982C42.4429 48.9531 42.6594 48.4303 43.0449 48.0449C43.4303 47.6594 43.9531 47.4429 44.4982 47.4429H73.2733C73.8184 47.4429 74.3412 47.6594 74.7267 48.0449C75.1121 48.4303 75.3287 48.9531 75.3287 49.4982C75.3287 50.0433 75.1121 50.5661 74.7267 50.9516C74.3412 51.337 73.8184 51.5536 73.2733 51.5536H44.4982C43.9531 51.5536 43.4303 51.337 43.0449 50.9516C42.6594 50.5661 42.4429 50.0433 42.4429 49.4982ZM42.4429 59.775C42.4429 59.2299 42.6594 58.7071 43.0449 58.3217C43.4303 57.9362 43.9531 57.7197 44.4982 57.7197H73.2733C73.8184 57.7197 74.3412 57.9362 74.7267 58.3217C75.1121 58.7071 75.3287 59.2299 75.3287 59.775C75.3287 60.3202 75.1121 60.8429 74.7267 61.2284C74.3412 61.6139 73.8184 61.8304 73.2733 61.8304H44.4982C43.9531 61.8304 43.4303 61.6139 43.0449 61.2284C42.6594 60.8429 42.4429 60.3202 42.4429 59.775ZM42.4429 70.0518C42.4429 69.5067 42.6594 68.9839 43.0449 68.5985C43.4303 68.213 43.9531 67.9965 44.4982 67.9965H60.9411C61.4862 67.9965 62.009 68.213 62.3945 68.5985C62.7799 68.9839 62.9965 69.5067 62.9965 70.0518C62.9965 70.597 62.7799 71.1197 62.3945 71.5052C62.009 71.8907 61.4862 72.1072 60.9411 72.1072H44.4982C43.9531 72.1072 43.4303 71.8907 43.0449 71.5052C42.6594 71.1197 42.4429 70.597 42.4429 70.0518Z" fill="#4D6D8A"/>
</svg>
