<svg width="43" height="43" viewBox="0 0 43 43" fill="none" xmlns="http://www.w3.org/2000/svg">
<g filter="url(#filter0_d)">
<circle cx="21.5" cy="21.5" r="17.5" fill="#4D6D8A"/>
</g>
<path d="M20.29 19.47C20.29 19.7633 20.2167 20.0267 20.07 20.26C19.9233 20.4867 19.69 20.6667 19.37 20.8C19.7567 20.9267 20.0433 21.12 20.23 21.38C20.4233 21.64 20.52 21.9433 20.52 22.29C20.52 22.9167 20.2933 23.38 19.84 23.68C19.3933 23.9733 18.75 24.12 17.91 24.12C17.65 24.12 17.3733 24.1067 17.08 24.08C16.7933 24.0533 16.5267 24.0033 16.28 23.93C15.9733 23.8433 15.82 23.6667 15.82 23.4V18.4C15.82 18.2867 15.85 18.2 15.91 18.14C15.9767 18.0733 16.0667 18.0233 16.18 17.99C16.4067 17.9167 16.6567 17.8667 16.93 17.84C17.21 17.8133 17.51 17.8 17.83 17.8C18.61 17.8 19.2133 17.9367 19.64 18.21C20.0733 18.4833 20.29 18.9033 20.29 19.47ZM19.43 22.26C19.43 21.9533 19.3167 21.7133 19.09 21.54C18.8633 21.36 18.5367 21.27 18.11 21.27H16.87V23.17C17.01 23.2033 17.1767 23.23 17.37 23.25C17.5633 23.2633 17.7567 23.27 17.95 23.27C18.4233 23.27 18.7867 23.19 19.04 23.03C19.3 22.8633 19.43 22.6067 19.43 22.26ZM16.87 20.46H18.06C18.44 20.46 18.7267 20.3767 18.92 20.21C19.1133 20.0433 19.21 19.8167 19.21 19.53C19.21 18.9433 18.75 18.65 17.83 18.65C17.6367 18.65 17.46 18.6567 17.3 18.67C17.14 18.6833 16.9967 18.7 16.87 18.72V20.46ZM25.4304 22.48H22.9904L22.5004 24.01C22.4404 24.0367 22.377 24.0567 22.3104 24.07C22.2437 24.0833 22.1637 24.09 22.0704 24.09C21.9037 24.09 21.767 24.0533 21.6604 23.98C21.5537 23.9067 21.5004 23.7967 21.5004 23.65C21.5004 23.5767 21.5104 23.5067 21.5304 23.44C21.5504 23.3667 21.577 23.2867 21.6104 23.2C21.697 22.92 21.817 22.56 21.9704 22.12C22.1304 21.6733 22.297 21.2033 22.4704 20.71C22.6504 20.2167 22.8304 19.7333 23.0104 19.26C23.1904 18.78 23.347 18.37 23.4804 18.03C23.547 17.99 23.6504 17.9533 23.7904 17.92C23.9304 17.88 24.0737 17.86 24.2204 17.86C24.4137 17.86 24.587 17.8867 24.7404 17.94C24.8937 17.9933 24.997 18.0867 25.0504 18.22C25.197 18.6 25.357 19.0333 25.5304 19.52C25.7037 20 25.877 20.4967 26.0504 21.01C26.2237 21.5233 26.3904 22.0267 26.5504 22.52C26.7104 23.0133 26.8537 23.46 26.9804 23.86C26.9204 23.9267 26.8404 23.98 26.7404 24.02C26.647 24.0667 26.5337 24.09 26.4004 24.09C26.2204 24.09 26.0904 24.0567 26.0104 23.99C25.9304 23.9167 25.8637 23.7967 25.8104 23.63L25.4304 22.48ZM24.2104 18.79C24.1437 18.97 24.0704 19.1733 23.9904 19.4C23.9104 19.6267 23.827 19.8667 23.7404 20.12C23.6537 20.3667 23.567 20.62 23.4804 20.88C23.3937 21.1333 23.3104 21.38 23.2304 21.62H25.2004C25.1137 21.3533 25.0237 21.0867 24.9304 20.82C24.8437 20.5467 24.757 20.2867 24.6704 20.04C24.5904 19.7933 24.5137 19.5633 24.4404 19.35C24.367 19.13 24.307 18.9433 24.2604 18.79H24.2104Z" fill="white"/>
<defs>
<filter id="filter0_d" x="0" y="0" width="43" height="43" filterUnits="userSpaceOnUse" color-interpolation-filters="sRGB">
<feFlood flood-opacity="0" result="BackgroundImageFix"/>
<feColorMatrix in="SourceAlpha" type="matrix" values="0 0 0 0 0 0 0 0 0 0 0 0 0 0 0 0 0 0 127 0" result="hardAlpha"/>
<feOffset/>
<feGaussianBlur stdDeviation="2"/>
<feComposite in2="hardAlpha" operator="out"/>
<feColorMatrix type="matrix" values="0 0 0 0 0 0 0 0 0 0 0 0 0 0 0 0 0 0 0.1 0"/>
<feBlend mode="normal" in2="BackgroundImageFix" result="effect1_dropShadow"/>
<feBlend mode="normal" in="SourceGraphic" in2="effect1_dropShadow" result="shape"/>
</filter>
</defs>
</svg>
