<svg width="12" height="11" viewBox="0 0 12 11" fill="none" xmlns="http://www.w3.org/2000/svg">
<path d="M9.86006 2.11525C10.1624 2.00657 10.3489 1.55034 10.2765 1.09624C10.2041 0.642142 9.90036 0.362127 9.598 0.470812C9.29565 0.579496 9.1092 1.03572 9.18157 1.48982C9.25393 1.94392 9.55771 2.22394 9.86006 2.11525Z" fill="#4D6D8A"/>
<path d="M9.12661 1.97339L7.8905 3.04813" stroke="#4D6D8A" stroke-width="0.1" stroke-miterlimit="10"/>
<path d="M9.71191 2.32507V2.89157" stroke="#4D6D8A" stroke-width="0.1" stroke-miterlimit="10"/>
<path d="M9.34775 2.3446L9.03552 3.12634" stroke="#4D6D8A" stroke-width="0.1" stroke-miterlimit="10"/>
<path d="M8.98349 1.32886H8.65808" stroke="#4D6D8A" stroke-width="0.1" stroke-miterlimit="10"/>
<path d="M9.08751 0.840174L8.29395 0.410278" stroke="#4D6D8A" stroke-width="0.1" stroke-miterlimit="10"/>
<path d="M9.71191 0.273492V0" stroke="#4D6D8A" stroke-width="0.1" stroke-miterlimit="10"/>
<path d="M10.4015 1.36792H10.7787" stroke="#4D6D8A" stroke-width="0.1" stroke-miterlimit="10"/>
<path d="M10.3103 0.800852L10.5446 0.546875" stroke="#4D6D8A" stroke-width="0.1" stroke-miterlimit="10"/>
<path d="M10.2715 1.8562L11.0001 2.48153" stroke="#4D6D8A" stroke-width="0.1" stroke-miterlimit="10"/>
<path d="M2.93168 9.99992H8.85535L7.31004 3.42419H1.38637L2.93168 9.99992Z" fill="#4D6D8A"/>
<path d="M7.5354 10H2.93168L1.91178 5.66003L7.5354 10Z" fill="#4D6D8A"/>
<path d="M2.93168 9.99992H8.85535L7.31004 3.42419H1.38637L2.93168 9.99992Z" stroke="white" stroke-width="0.1" stroke-miterlimit="10" stroke-linecap="round" stroke-linejoin="round"/>
<path d="M1.9657 5.89124L1.00014 9.9999" stroke="#4D6D8A" stroke-width="0.1" stroke-miterlimit="10" stroke-linecap="round" stroke-linejoin="round"/>
<path d="M4.34813 3.42419L5.89343 9.99992" stroke="white" stroke-width="0.1" stroke-miterlimit="10" stroke-linecap="round" stroke-linejoin="round"/>
<path d="M1.93726 3.42419L3.48256 9.89212" stroke="white" stroke-width="0.1"/>
<path d="M2.77319 3.42419L4.3185 9.89212" stroke="white" stroke-width="0.1"/>
<path d="M3.58386 3.42419L5.12917 9.89212" stroke="white" stroke-width="0.1"/>
<path d="M5.20508 3.42419L6.75038 9.89212" stroke="white" stroke-width="0.1"/>
<path d="M6.87708 3.42419L8.42238 9.89212" stroke="white" stroke-width="0.1"/>
<path d="M6.04114 3.42419L7.58644 9.89212" stroke="white" stroke-width="0.1"/>
<path d="M1.60803 4.37537H7.58659" stroke="white" stroke-width="0.1"/>
<path d="M1.91199 5.89722H7.89054" stroke="white" stroke-width="0.1"/>
<path d="M2.31726 7.41919H8.29582" stroke="white" stroke-width="0.1"/>
<path d="M2.672 8.94104H8.65055" stroke="white" stroke-width="0.1"/>
</svg>
