<svg width="10" height="10" viewBox="0 0 10 10" fill="none" xmlns="http://www.w3.org/2000/svg">
<path d="M4.54395 4.54375C4.29194 4.79577 4.29194 5.20423 4.54395 5.45605C4.79577 5.70806 5.20444 5.70806 5.45625 5.45605C5.70827 5.20403 5.70827 4.79556 5.45625 4.54375C5.20423 4.29194 4.79577 4.29194 4.54395 4.54375ZM5 0C2.23851 0 0 2.23851 0 5C0 7.76149 2.23851 10 5 10C7.76149 10 10 7.76149 10 5C10 2.23851 7.76149 0 5 0ZM7.54315 2.98488L6.2131 5.89516C6.14877 6.0359 6.0359 6.14877 5.89516 6.2131L2.98508 7.54315C2.64939 7.69657 2.30343 7.3506 2.45685 7.01492L3.7871 4.10464C3.85143 3.96389 3.9643 3.85103 4.10504 3.78669L7.01512 2.45665C7.35081 2.30343 7.69657 2.64919 7.54315 2.98488Z" fill="#4D6D8A"/>
</svg>
