<svg width="10" height="10" viewBox="0 0 10 10" fill="none" xmlns="http://www.w3.org/2000/svg">
<path d="M1.76471 2.35282C1.76473 1.95965 1.86327 1.57275 2.05133 1.22748C2.2394 0.882202 2.51098 0.589557 2.84127 0.376279C3.17157 0.163001 3.55004 0.0358892 3.94211 0.00655752C4.33419 -0.0227741 4.72736 0.0466094 5.08571 0.208369C5.44406 0.370128 5.75617 0.619106 5.99351 0.932556C6.23085 1.246 6.38586 1.61393 6.44438 2.00272C6.50291 2.39151 6.46307 2.78877 6.32852 3.15819C6.19396 3.52762 5.96898 3.85744 5.67412 4.11752H5.59589C5.12353 4.11752 4.70295 4.33929 4.43177 4.68517C4.09921 4.72997 3.76091 4.70311 3.43958 4.60641C3.11825 4.50971 2.82133 4.3454 2.56873 4.1245C2.31612 3.90359 2.1137 3.63122 1.97502 3.32565C1.83635 3.02008 1.76464 2.68838 1.76471 2.35282ZM4.11765 0.588107C3.64962 0.588107 3.20076 0.774032 2.86981 1.10498C2.53887 1.43593 2.35294 1.88479 2.35294 2.35282C2.35294 2.82084 2.53887 3.26971 2.86981 3.60065C3.20076 3.9316 3.64962 4.11752 4.11765 4.11752C4.58568 4.11752 5.03454 3.9316 5.36549 3.60065C5.69644 3.26971 5.88236 2.82084 5.88236 2.35282C5.88236 1.88479 5.69644 1.43593 5.36549 1.10498C5.03454 0.774032 4.58568 0.588107 4.11765 0.588107ZM4.14883 5.29399H1.18177C1.02685 5.29338 0.873328 5.32334 0.730015 5.38218C0.586703 5.44102 0.456415 5.52757 0.346623 5.63687C0.236832 5.74617 0.149697 5.87607 0.0902156 6.01912C0.0307341 6.16216 7.61836e-05 6.31555 0 6.47047C0 7.46517 0.490001 8.21517 1.25588 8.704C2.01 9.18459 3.02647 9.41165 4.11765 9.41165C4.59 9.41165 5.04883 9.36929 5.47824 9.28224L4.97589 8.76929C4.70295 8.80576 4.41589 8.82341 4.11765 8.82341C3.09706 8.82341 2.20177 8.60929 1.57235 8.20753C0.954707 7.81341 0.588236 7.24106 0.588236 6.47047C0.588236 6.14517 0.851766 5.88223 1.18177 5.88223H4.11706V5.59752C4.11706 5.49341 4.12883 5.39164 4.14883 5.29399ZM4.70589 7.28811C4.70589 7.52164 4.79706 7.74517 4.96001 7.91164L6.74471 9.73341C7.08589 10.0816 7.64295 10.0899 7.99413 9.75165L9.72766 8.08282C10.0847 7.7387 10.0918 7.16811 9.74236 6.81517L7.91471 4.9687C7.83218 4.88539 7.73397 4.81926 7.62573 4.77413C7.5175 4.729 7.40139 4.70576 7.28413 4.70576H5.59412C5.47738 4.70576 5.36178 4.72877 5.25394 4.77348C5.1461 4.8182 5.04812 4.88373 4.96563 4.96633C4.88313 5.04894 4.81773 5.147 4.77316 5.2549C4.72859 5.3628 4.70573 5.47843 4.70589 5.59517V7.2887V7.28811ZM6.32354 6.76458C6.20653 6.76458 6.09431 6.7181 6.01158 6.63537C5.92884 6.55263 5.88236 6.44041 5.88236 6.32341C5.88236 6.2064 5.92884 6.09419 6.01158 6.01145C6.09431 5.92871 6.20653 5.88223 6.32354 5.88223C6.44054 5.88223 6.55276 5.92871 6.6355 6.01145C6.71823 6.09419 6.76471 6.2064 6.76471 6.32341C6.76471 6.44041 6.71823 6.55263 6.6355 6.63537C6.55276 6.7181 6.44054 6.76458 6.32354 6.76458Z" fill="#4D6D8A"/>
</svg>
