<svg width="53" height="49" viewBox="0 0 53 49" fill="none" xmlns="http://www.w3.org/2000/svg">
<path d="M16.1411 46.1975C10.9779 46.1975 6.74759 42.7176 6.74759 38.4331V34.3296C6.74759 33.5049 7.48519 32.821 8.37466 32.821C9.26412 32.821 10.0017 33.5049 10.0017 34.3296C10.0017 36.844 12.6266 38.7348 16.1411 38.7348C19.6556 38.7348 22.2806 36.844 22.2806 34.3296C22.2806 33.5049 23.0182 32.821 23.9076 32.821C24.7971 32.821 25.5347 33.5049 25.5347 34.3296V38.4331C25.5347 42.7176 21.326 46.1975 16.1411 46.1975ZM10.5657 40.4043C11.5202 42.0538 13.668 43.1802 16.1411 43.1802C18.6142 43.1802 20.762 42.0337 21.7165 40.4043C20.1762 41.2693 18.2671 41.7722 16.1411 41.7722C14.0151 41.7722 12.106 41.2693 10.5657 40.4043Z" fill="#0F5FC2"/>
<path d="M16.1411 36.2402C12.5832 36.2402 9.39426 34.7315 7.81058 32.3379C7.11637 31.2919 6.74759 30.0649 6.74759 28.8177C6.74759 26.7057 7.7455 24.7344 9.56782 23.266C13.0823 20.4098 19.1349 20.4099 22.6711 23.2461C24.4934 24.7346 25.513 26.7057 25.513 28.8177C25.513 30.0649 25.1442 31.2919 24.45 32.3379C22.888 34.7315 19.6989 36.2402 16.1411 36.2402ZM16.1411 24.0708C14.4489 24.0708 12.887 24.5936 11.7155 25.539C10.6091 26.4241 10.0017 27.5907 10.0017 28.8177C10.0017 29.5218 10.1969 30.1656 10.5874 30.7691C11.5853 32.2978 13.7113 33.2432 16.1411 33.2432C18.5709 33.2432 20.6969 32.2978 21.6731 30.7892C22.0636 30.2059 22.2589 29.5421 22.2589 28.8381C22.2589 27.6111 21.6515 26.4442 20.5451 25.539C19.3953 24.5936 17.8332 24.0708 16.1411 24.0708Z" fill="#0F5FC2"/>
<path d="M16.1411 41.773C10.7826 41.773 6.74759 38.5747 6.74759 34.3506V28.819C6.74759 24.5345 10.9562 21.0546 16.1411 21.0546C18.5925 21.0546 20.9356 21.8391 22.6928 23.2471C24.5151 24.7356 25.5347 26.7069 25.5347 28.819V34.3506C25.5347 38.5747 21.4996 41.773 16.1411 41.773ZM16.1411 24.0718C12.7568 24.0718 10.0017 26.204 10.0017 28.819V34.3506C10.0017 36.8649 12.6266 38.7557 16.1411 38.7557C19.6556 38.7557 22.2806 36.8649 22.2806 34.3506V28.819C22.2806 27.592 21.6732 26.4253 20.5668 25.5201C19.3953 24.5948 17.8332 24.0718 16.1411 24.0718Z" fill="#0F5FC2"/>
<path d="M41.8923 30.2073C38.6165 30.2073 35.8397 27.9544 35.5793 25.0579C35.4058 23.3883 36.0566 21.759 37.3583 20.5722C38.443 19.5262 39.9833 18.9429 41.6103 18.9429H46.1444C48.2921 19.0033 49.9409 20.5722 49.9409 22.5033V26.647C49.9409 28.578 48.2921 30.147 46.2095 30.2073H41.8923ZM46.0793 21.9602H41.632C40.8727 21.9602 40.1785 22.2217 39.6795 22.7044C39.0504 23.2676 38.7467 24.032 38.8335 24.7964C38.9419 26.124 40.3304 27.1901 41.8923 27.1901H46.1444C46.4264 27.1901 46.6868 26.9487 46.6868 26.647V22.5033C46.6868 22.2016 46.4264 21.9803 46.0793 21.9602Z" fill="#0F5FC2"/>
<path d="M35.298 43.181H29.8744C28.9849 43.181 28.2473 42.4971 28.2473 41.6724C28.2473 40.8477 28.9849 40.1638 29.8744 40.1638H35.298C40.8951 40.1638 44.518 36.8046 44.518 31.6149V30.2069H41.893C38.6172 30.2069 35.8403 27.954 35.58 25.0575C35.4064 23.3879 36.0575 21.7586 37.3591 20.5718C38.4438 19.5259 39.9839 18.9425 41.611 18.9425H44.4963V17.5345C44.4963 12.8276 41.5244 9.58903 36.7083 9.06604C36.1876 8.98558 35.7318 8.98563 35.2763 8.98563H15.7515C15.2309 8.98563 14.7319 9.02584 14.2329 9.08618C9.46019 9.6494 6.53149 12.8678 6.53149 17.5345V21.5575C6.53149 22.3822 5.79389 23.0661 4.90443 23.0661C4.01496 23.0661 3.27736 22.3822 3.27736 21.5575V17.5345C3.27736 11.3391 7.39935 6.85346 13.7991 6.10921C14.3849 6.02875 15.0573 5.96838 15.7515 5.96838H35.2763C35.7969 5.96838 36.4694 5.9885 37.1637 6.08907C43.5635 6.77298 47.7504 11.2787 47.7504 17.5345V20.4512C47.7504 21.2759 47.0128 21.9598 46.1234 21.9598H41.611C40.8517 21.9598 40.1577 22.2213 39.6587 22.704C39.0296 23.2672 38.7256 24.0316 38.8124 24.796C38.9209 26.1236 40.3095 27.1896 41.8715 27.1896H46.1451C47.0345 27.1896 47.7721 27.8736 47.7721 28.6983V31.6149C47.7721 38.5345 42.7608 43.181 35.298 43.181Z" fill="#0F5FC2"/>
</svg>
