<svg width="143" height="125" viewBox="0 0 143 125" fill="none" xmlns="http://www.w3.org/2000/svg">
<path d="M27.0692 72.7561L27.0774 72.7147L27.0843 72.673C28.7993 62.2873 33.4051 53.5956 40.3156 47.4381C47.0439 41.4715 55.732 38.1884 64.7248 38.2144H64.7321C72.6351 38.2144 79.9768 40.6639 86.0054 45.2762C90.748 48.9538 94.53 53.7246 97.0286 59.1811C97.4791 60.1678 98.1538 61.0356 98.9991 61.7154C99.8444 62.3953 100.837 62.8683 101.897 63.0967C108.743 64.5738 114.543 67.6265 118.842 71.9085C124.123 77.1881 126.964 84.2362 126.964 92.4108C126.964 100.888 123.586 108.586 117.461 114.142L117.458 114.144C111.568 119.502 103.557 122.5 94.866 122.5H29.5759C21.7719 122.5 15.2697 120.43 10.6174 116.728C5.36592 112.544 2.5 106.308 2.5 98.4375C2.5 91.6761 5.03454 85.9073 9.80055 81.6289C13.6337 78.1881 18.9821 75.7172 24.9078 74.761C25.0704 74.7412 25.3423 74.6913 25.6444 74.5541C26.1202 74.3379 26.5034 73.9853 26.7585 73.5603C26.9718 73.2049 27.0437 72.8833 27.0692 72.7561Z" fill="#7CDCFF" stroke="white" stroke-width="5"/>
<path d="M119.069 56.2139L119.068 56.2168C119.044 56.3072 118.999 56.3909 118.937 56.4614C118.875 56.5319 118.798 56.5874 118.712 56.6236C118.625 56.6599 118.532 56.6759 118.438 56.6705C118.345 56.6651 118.253 56.6385 118.172 56.5926C115.07 54.848 111.783 53.4567 108.371 52.4449C107.39 52.1528 106.56 51.4927 106.055 50.6026C102.834 44.8612 98.4889 39.8274 93.28 35.8014L93.2784 35.8002C88.9393 32.4747 84.0401 29.9526 78.8126 28.3528L78.8126 28.3528L78.8075 28.3513C78.7276 28.3278 78.656 28.2823 78.6009 28.22C78.5457 28.1577 78.5092 28.0812 78.4955 27.9991C78.4819 27.917 78.4916 27.8328 78.5235 27.756C78.5439 27.7072 78.5726 27.6626 78.6083 27.6243L78.6913 27.5661C83.1083 24.4652 88.377 22.8078 93.7738 22.8215L93.7746 22.8215C108.129 22.8352 119.929 34.5529 120.036 48.9072V48.9073C120.054 51.3759 119.729 53.8351 119.069 56.2139Z" fill="#FFC106" stroke="white"/>
<path d="M138.393 53.0714H129.464C128.413 53.0714 127.404 52.6537 126.661 51.9102C125.918 51.1668 125.5 50.1585 125.5 49.1071C125.5 48.0557 125.918 47.0474 126.661 46.3039C127.404 45.5605 128.413 45.1428 129.464 45.1428H138.393C139.444 45.1428 140.452 45.5605 141.196 46.3039C141.939 47.0474 142.357 48.0557 142.357 49.1071C142.357 50.1585 141.939 51.1668 141.196 51.9102C140.452 52.6537 139.444 53.0714 138.393 53.0714Z" fill="#FFC106" stroke="white"/>
<path d="M93.7499 17.3571C92.6985 17.3571 91.6901 16.9395 90.9467 16.196C90.2032 15.4526 89.7856 14.4442 89.7856 13.3928V4.46428C89.7856 3.41289 90.2032 2.40456 90.9467 1.66111C91.6901 0.917664 92.6985 0.5 93.7499 0.5C94.8013 0.5 95.8096 0.917664 96.553 1.66111C97.2965 2.40456 97.7141 3.41289 97.7141 4.46428V13.3928C97.7141 14.4442 97.2965 15.4526 96.553 16.196C95.8096 16.9395 94.8013 17.3571 93.7499 17.3571Z" fill="#FFC106" stroke="white"/>
<path d="M68.4951 27.8175L68.4957 27.8175C69.2795 27.8171 70.0456 27.5845 70.6972 27.1488C71.3488 26.7132 71.8566 26.0942 72.1565 25.37C72.4564 24.6459 72.5349 23.8491 72.3821 23.0803C72.2293 22.3116 71.852 21.6054 71.298 21.051L68.4951 27.8175ZM68.4951 27.8175C67.9748 27.8184 67.4594 27.7162 66.9788 27.5169C66.4981 27.3175 66.0617 27.025 65.6947 26.6562L65.6937 26.6553L59.3796 20.344C59.3796 20.344 59.3796 20.3439 59.3796 20.3439C58.6361 19.6004 58.2184 18.5919 58.2184 17.5405C58.2184 16.4889 58.6361 15.4805 59.3796 14.7369C60.1232 13.9934 61.1316 13.5757 62.1832 13.5757C63.2347 13.5757 64.2431 13.9934 64.9866 14.7369C64.9866 14.7369 64.9867 14.7369 64.9867 14.7369L71.298 21.051L68.4951 27.8175ZM66.7873 27.9787C66.2456 27.7541 65.7539 27.4245 65.3403 27.0089L71.6516 20.6975C72.2755 21.3219 72.7004 22.1171 72.8725 22.9829C73.0446 23.8486 72.9562 24.7459 72.6184 25.5614C72.2807 26.3768 71.7088 27.0739 70.9751 27.5645C70.2413 28.0551 69.3786 28.3171 68.4959 28.3175C67.9096 28.3185 67.3289 28.2033 66.7873 27.9787Z" fill="#FFC106" stroke="white"/>
<path d="M119.005 27.8175H119.004C118.22 27.8171 117.454 27.5844 116.802 27.1488C116.151 26.7132 115.643 26.0942 115.343 25.37C115.043 24.6459 114.965 23.8491 115.118 23.0803C115.27 22.3116 115.648 21.6054 116.202 21.051C116.202 21.051 116.202 21.051 116.202 21.051L122.513 14.7369C122.513 14.7369 122.513 14.7369 122.513 14.7369C123.257 13.9934 124.265 13.5757 125.316 13.5757C126.368 13.5757 127.376 13.9934 128.12 14.7369C128.864 15.4805 129.281 16.4889 129.281 17.5405C129.281 18.592 128.864 19.6004 128.12 20.3439C128.12 20.3439 128.12 20.344 128.12 20.344L121.806 26.6553L121.805 26.6562C121.438 27.025 121.002 27.3175 120.521 27.5169C120.04 27.7162 119.525 27.8184 119.005 27.8175Z" fill="#FFC106" stroke="white"/>
</svg>
