<svg width="121" height="63" viewBox="0 0 121 63" fill="none" xmlns="http://www.w3.org/2000/svg">
<path d="M6.64246 18.27C7.80246 18.27 8.65246 18.05 9.19246 17.61C9.73246 17.15 10.0025 16.58 10.0025 15.9C10.0025 15.28 9.79246 14.79 9.37246 14.43C8.95246 14.05 8.31246 13.73 7.45246 13.47L5.53246 12.87C4.77246 12.63 4.08246 12.36 3.46246 12.06C2.84246 11.76 2.31246 11.41 1.87246 11.01C1.43246 10.59 1.09246 10.11 0.852461 9.57C0.612461 9.01 0.492461 8.35 0.492461 7.59C0.492461 5.97 1.10246 4.69 2.32246 3.75C3.54246 2.79 5.21246 2.31 7.33246 2.31C8.17246 2.31 8.94246 2.38 9.64246 2.52C10.3625 2.64 10.9825 2.82 11.5025 3.06C12.0225 3.28 12.4225 3.56 12.7025 3.9C13.0025 4.24 13.1525 4.62 13.1525 5.04C13.1525 5.44 13.0525 5.79 12.8525 6.09C12.6725 6.37 12.4425 6.6 12.1625 6.78C11.6825 6.44 11.0425 6.15 10.2425 5.91C9.46246 5.65 8.60246 5.52 7.66246 5.52C6.62246 5.52 5.83246 5.71 5.29246 6.09C4.75246 6.45 4.48246 6.95 4.48246 7.59C4.48246 8.11 4.66246 8.51 5.02246 8.79C5.40246 9.07 5.99246 9.34 6.79246 9.6L8.50246 10.14C10.2425 10.66 11.5925 11.37 12.5525 12.27C13.5125 13.17 13.9925 14.39 13.9925 15.93C13.9925 16.75 13.8325 17.5 13.5125 18.18C13.1925 18.86 12.7225 19.45 12.1025 19.95C11.5025 20.43 10.7425 20.8 9.82246 21.06C8.92246 21.34 7.89246 21.48 6.73246 21.48C5.81246 21.48 4.96246 21.4 4.18246 21.24C3.42246 21.08 2.76246 20.87 2.20246 20.61C1.64246 20.33 1.20246 20.01 0.882461 19.65C0.582461 19.27 0.432461 18.86 0.432461 18.42C0.432461 17.96 0.562461 17.57 0.822461 17.25C1.10246 16.91 1.42246 16.66 1.78246 16.5C2.28246 16.94 2.94246 17.35 3.76246 17.73C4.58246 18.09 5.54246 18.27 6.64246 18.27ZM22.9287 18.57C23.5087 18.57 24.0387 18.52 24.5187 18.42C24.9987 18.3 25.3487 18.16 25.5687 18V14.67L22.6587 14.94C21.8587 15.02 21.2487 15.2 20.8287 15.48C20.4087 15.74 20.1987 16.16 20.1987 16.74C20.1987 17.32 20.4087 17.77 20.8287 18.09C21.2687 18.41 21.9687 18.57 22.9287 18.57ZM22.8087 6.36C24.7687 6.36 26.3287 6.78 27.4887 7.62C28.6687 8.46 29.2587 9.76 29.2587 11.52V18.45C29.2587 18.93 29.1387 19.31 28.8987 19.59C28.6587 19.87 28.3587 20.12 27.9987 20.34C27.4387 20.68 26.7287 20.95 25.8687 21.15C25.0087 21.35 24.0287 21.45 22.9287 21.45C20.9287 21.45 19.3487 21.07 18.1887 20.31C17.0487 19.53 16.4787 18.37 16.4787 16.83C16.4787 15.49 16.8987 14.47 17.7387 13.77C18.5987 13.05 19.8387 12.61 21.4587 12.45L25.5687 12.03V11.49C25.5687 10.73 25.2887 10.17 24.7287 9.81C24.1887 9.45 23.4187 9.27 22.4187 9.27C21.6387 9.27 20.8787 9.37 20.1387 9.57C19.3987 9.75 18.7387 9.98 18.1587 10.26C17.9387 10.1 17.7487 9.89 17.5887 9.63C17.4487 9.35 17.3787 9.05 17.3787 8.73C17.3787 8.33 17.4687 8.01 17.6487 7.77C17.8487 7.51 18.1587 7.28 18.5787 7.08C19.1587 6.84 19.8187 6.66 20.5587 6.54C21.2987 6.42 22.0487 6.36 22.8087 6.36ZM43.651 6.48C44.171 6.48 44.601 6.6 44.941 6.84C45.301 7.08 45.481 7.48 45.481 8.04C45.481 8.3 45.401 8.72 45.241 9.3C45.101 9.88 44.901 10.55 44.641 11.31C44.401 12.07 44.121 12.89 43.801 13.77C43.481 14.65 43.151 15.52 42.811 16.38C42.471 17.22 42.131 18.02 41.791 18.78C41.451 19.54 41.141 20.18 40.861 20.7C40.661 20.86 40.361 20.99 39.961 21.09C39.561 21.19 39.121 21.24 38.641 21.24C38.061 21.24 37.561 21.16 37.141 21C36.741 20.86 36.451 20.62 36.271 20.28C36.091 19.94 35.871 19.47 35.611 18.87C35.351 18.27 35.071 17.59 34.771 16.83C34.471 16.07 34.161 15.27 33.841 14.43C33.521 13.57 33.211 12.72 32.911 11.88C32.631 11.04 32.361 10.23 32.101 9.45C31.861 8.67 31.661 7.97 31.501 7.35C31.701 7.11 31.981 6.91 32.341 6.75C32.721 6.57 33.111 6.48 33.511 6.48C34.031 6.48 34.451 6.6 34.771 6.84C35.111 7.08 35.371 7.51 35.551 8.13L37.051 13.08C37.171 13.48 37.301 13.91 37.441 14.37C37.601 14.81 37.751 15.25 37.891 15.69C38.031 16.11 38.161 16.52 38.281 16.92C38.421 17.3 38.531 17.62 38.611 17.88H38.731C39.311 16.12 39.881 14.31 40.441 12.45C41.001 10.57 41.491 8.72 41.911 6.9C42.151 6.76 42.421 6.66 42.721 6.6C43.041 6.52 43.351 6.48 43.651 6.48ZM51.1997 15.6C51.4797 16.62 51.9997 17.36 52.7597 17.82C53.5197 18.28 54.4597 18.51 55.5797 18.51C56.4197 18.51 57.1897 18.39 57.8897 18.15C58.6097 17.89 59.1897 17.62 59.6297 17.34C59.9097 17.5 60.1397 17.72 60.3197 18C60.4997 18.28 60.5897 18.58 60.5897 18.9C60.5897 19.3 60.4497 19.66 60.1697 19.98C59.9097 20.28 59.5397 20.54 59.0597 20.76C58.5997 20.98 58.0497 21.15 57.4097 21.27C56.7697 21.39 56.0797 21.45 55.3397 21.45C54.1597 21.45 53.0797 21.29 52.0997 20.97C51.1397 20.65 50.3097 20.17 49.6097 19.53C48.9297 18.87 48.3897 18.06 47.9897 17.1C47.6097 16.14 47.4197 15.02 47.4197 13.74C47.4197 12.5 47.6097 11.42 47.9897 10.5C48.3697 9.58 48.8797 8.81 49.5197 8.19C50.1797 7.57 50.9397 7.11 51.7997 6.81C52.6597 6.51 53.5697 6.36 54.5297 6.36C55.5097 6.36 56.4097 6.52 57.2297 6.84C58.0497 7.14 58.7497 7.57 59.3297 8.13C59.9097 8.67 60.3597 9.33 60.6797 10.11C61.0197 10.87 61.1897 11.7 61.1897 12.6C61.1897 13.16 61.0397 13.58 60.7397 13.86C60.4597 14.14 60.0597 14.32 59.5397 14.4L51.1997 15.6ZM54.5297 9.21C53.5497 9.21 52.7297 9.54 52.0697 10.2C51.4097 10.84 51.0397 11.76 50.9597 12.96L57.6197 11.97C57.5397 11.23 57.2497 10.59 56.7497 10.05C56.2497 9.49 55.5097 9.21 54.5297 9.21ZM84.481 7.47C84.481 8.37 84.241 9.15 83.761 9.81C83.301 10.47 82.601 11 81.661 11.4C82.821 11.78 83.691 12.35 84.271 13.11C84.851 13.87 85.141 14.77 85.141 15.81C85.141 17.71 84.451 19.12 83.071 20.04C81.691 20.96 79.691 21.42 77.071 21.42C76.691 21.42 76.281 21.41 75.841 21.39C75.421 21.37 74.991 21.33 74.551 21.27C74.111 21.23 73.671 21.16 73.231 21.06C72.791 20.98 72.381 20.88 72.001 20.76C71.041 20.44 70.561 19.85 70.561 18.99V4.32C70.561 3.94 70.661 3.65 70.861 3.45C71.061 3.25 71.341 3.09 71.701 2.97C72.381 2.75 73.171 2.6 74.071 2.52C74.971 2.42 75.911 2.37 76.891 2.37C79.311 2.37 81.181 2.79 82.501 3.63C83.821 4.45 84.481 5.73 84.481 7.47ZM81.181 15.66C81.181 14.86 80.891 14.23 80.311 13.77C79.751 13.31 78.931 13.08 77.851 13.08H74.341V18.09C74.721 18.19 75.171 18.26 75.691 18.3C76.231 18.34 76.761 18.36 77.281 18.36C78.501 18.36 79.451 18.15 80.131 17.73C80.831 17.29 81.181 16.6 81.181 15.66ZM74.341 10.23H77.371C78.451 10.23 79.251 10.01 79.771 9.57C80.311 9.13 80.581 8.52 80.581 7.74C80.581 6.16 79.361 5.37 76.921 5.37C76.421 5.37 75.941 5.39 75.481 5.43C75.041 5.47 74.661 5.52 74.341 5.58V10.23ZM88.5722 6.9C88.7322 6.86 88.9622 6.81 89.2622 6.75C89.5822 6.69 89.9222 6.66 90.2822 6.66C91.0022 6.66 91.5222 6.79 91.8422 7.05C92.1822 7.31 92.3522 7.77 92.3522 8.43V20.97C92.1922 21.01 91.9522 21.06 91.6322 21.12C91.3322 21.18 91.0022 21.21 90.6422 21.21C89.9222 21.21 89.3922 21.08 89.0522 20.82C88.7322 20.56 88.5722 20.1 88.5722 19.44V6.9ZM88.2722 2.55C88.2722 1.97 88.4722 1.48 88.8722 1.08C89.2922 0.659998 89.8222 0.449998 90.4622 0.449998C91.1022 0.449998 91.6222 0.659998 92.0222 1.08C92.4222 1.48 92.6222 1.97 92.6222 2.55C92.6222 3.15 92.4222 3.66 92.0222 4.08C91.6222 4.48 91.1022 4.68 90.4622 4.68C89.8222 4.68 89.2922 4.48 88.8722 4.08C88.4722 3.66 88.2722 3.15 88.2722 2.55ZM105.424 19.77C105.024 19.97 104.554 20.14 104.014 20.28C103.494 20.42 102.884 20.49 102.184 20.49C101.284 20.49 100.434 20.37 99.6338 20.13C98.8338 19.87 98.1338 19.46 97.5338 18.9C96.9338 18.34 96.4538 17.62 96.0938 16.74C95.7538 15.84 95.5838 14.75 95.5838 13.47C95.5838 12.31 95.7538 11.29 96.0938 10.41C96.4538 9.51 96.9538 8.76 97.5938 8.16C98.2538 7.56 99.0338 7.11 99.9338 6.81C100.834 6.51 101.834 6.36 102.934 6.36C103.974 6.36 104.924 6.49 105.784 6.75C106.664 7.01 107.364 7.31 107.884 7.65C108.244 7.89 108.524 8.16 108.724 8.46C108.944 8.76 109.054 9.14 109.054 9.6V21.18C109.054 22.2 108.864 23.08 108.484 23.82C108.124 24.56 107.624 25.16 106.984 25.62C106.344 26.1 105.594 26.45 104.734 26.67C103.874 26.89 102.944 27 101.944 27C100.904 27 99.9938 26.9 99.2138 26.7C98.4538 26.52 97.8838 26.31 97.5038 26.07C96.8438 25.65 96.5138 25.09 96.5138 24.39C96.5138 24.01 96.5938 23.68 96.7538 23.4C96.9138 23.12 97.1038 22.91 97.3238 22.77C97.8438 23.09 98.4738 23.37 99.2138 23.61C99.9538 23.85 100.744 23.97 101.584 23.97C102.784 23.97 103.724 23.74 104.404 23.28C105.084 22.82 105.424 22.08 105.424 21.06V19.77ZM102.814 17.55C103.394 17.55 103.884 17.47 104.284 17.31C104.704 17.15 105.064 16.96 105.364 16.74V9.96C105.084 9.8 104.754 9.66 104.374 9.54C104.014 9.42 103.574 9.36 103.054 9.36C101.954 9.36 101.064 9.7 100.384 10.38C99.7238 11.04 99.3938 12.07 99.3938 13.47C99.3938 14.23 99.4738 14.87 99.6338 15.39C99.8138 15.91 100.054 16.33 100.354 16.65C100.674 16.97 101.044 17.2 101.464 17.34C101.884 17.48 102.334 17.55 102.814 17.55ZM114.412 23.49C114.152 23.85 113.872 24.11 113.572 24.27C113.292 24.45 112.952 24.54 112.552 24.54C111.892 24.54 111.322 24.33 110.842 23.91C111.022 23.41 111.202 22.87 111.382 22.29C111.562 21.71 111.722 21.12 111.862 20.52C112.022 19.92 112.162 19.34 112.282 18.78C112.422 18.22 112.542 17.7 112.642 17.22C112.902 17.08 113.202 16.97 113.542 16.89C113.882 16.79 114.222 16.74 114.562 16.74C115.062 16.74 115.482 16.85 115.822 17.07C116.162 17.29 116.332 17.69 116.332 18.27C116.332 18.65 116.262 19.09 116.122 19.59C116.002 20.07 115.842 20.55 115.642 21.03C115.462 21.53 115.262 22 115.042 22.44C114.822 22.88 114.612 23.23 114.412 23.49ZM17.3398 59.48C17.3398 59.98 17.2298 60.37 17.0098 60.65C16.8098 60.91 16.4798 61.16 16.0198 61.4C15.7598 61.56 15.4298 61.71 15.0298 61.85C14.6498 61.97 14.2198 62.07 13.7398 62.15C13.2798 62.25 12.7998 62.33 12.2998 62.39C11.7998 62.45 11.2998 62.48 10.7998 62.48C9.37981 62.48 8.05981 62.3 6.83981 61.94C5.63981 61.56 4.58981 60.98 3.68981 60.2C2.8098 59.42 2.1198 58.43 1.6198 57.23C1.1198 56.03 0.869805 54.6 0.869805 52.94C0.869805 51.36 1.1198 49.97 1.6198 48.77C2.1398 47.55 2.8398 46.54 3.71981 45.74C4.61981 44.94 5.65981 44.34 6.83981 43.94C8.01981 43.52 9.28981 43.31 10.6498 43.31C11.5498 43.31 12.3598 43.39 13.0798 43.55C13.8198 43.69 14.4498 43.89 14.9698 44.15C15.5098 44.39 15.9198 44.69 16.1998 45.05C16.4798 45.39 16.6198 45.75 16.6198 46.13C16.6198 46.53 16.5098 46.88 16.2898 47.18C16.0698 47.48 15.8198 47.71 15.5398 47.87C15.0198 47.53 14.3898 47.22 13.6498 46.94C12.9098 46.64 11.9998 46.49 10.9198 46.49C10.0398 46.49 9.2298 46.64 8.4898 46.94C7.7498 47.22 7.1098 47.63 6.56981 48.17C6.0498 48.71 5.6398 49.38 5.3398 50.18C5.0398 50.98 4.8898 51.89 4.8898 52.91C4.8898 54.01 5.0398 54.96 5.3398 55.76C5.6398 56.56 6.0498 57.23 6.56981 57.77C7.1098 58.29 7.73981 58.68 8.45981 58.94C9.19981 59.18 9.99981 59.3 10.8598 59.3C11.4398 59.3 11.9698 59.25 12.4498 59.15C12.9298 59.05 13.2998 58.93 13.5598 58.79V54.62H9.71981C9.61981 54.46 9.52981 54.25 9.44981 53.99C9.3698 53.73 9.3298 53.44 9.3298 53.12C9.3298 52.6 9.44981 52.21 9.68981 51.95C9.94981 51.69 10.2798 51.56 10.6798 51.56H15.7198C16.2198 51.56 16.6098 51.7 16.8898 51.98C17.1898 52.26 17.3398 52.65 17.3398 53.15V59.48ZM35.0787 54.89C35.0787 56.05 34.8987 57.1 34.5387 58.04C34.1987 58.96 33.7087 59.75 33.0687 60.41C32.4287 61.07 31.6587 61.58 30.7587 61.94C29.8587 62.28 28.8487 62.45 27.7287 62.45C26.6087 62.45 25.5987 62.28 24.6987 61.94C23.7987 61.58 23.0287 61.08 22.3887 60.44C21.7487 59.78 21.2487 58.99 20.8887 58.07C20.5487 57.13 20.3787 56.07 20.3787 54.89C20.3787 53.73 20.5487 52.69 20.8887 51.77C21.2487 50.83 21.7487 50.04 22.3887 49.4C23.0487 48.74 23.8287 48.24 24.7287 47.9C25.6287 47.54 26.6287 47.36 27.7287 47.36C28.8287 47.36 29.8287 47.54 30.7287 47.9C31.6287 48.24 32.3987 48.74 33.0387 49.4C33.6987 50.06 34.1987 50.86 34.5387 51.8C34.8987 52.72 35.0787 53.75 35.0787 54.89ZM27.7287 50.36C26.6487 50.36 25.7987 50.76 25.1787 51.56C24.5587 52.34 24.2487 53.45 24.2487 54.89C24.2487 56.35 24.5487 57.47 25.1487 58.25C25.7687 59.03 26.6287 59.42 27.7287 59.42C28.8287 59.42 29.6787 59.03 30.2787 58.25C30.8987 57.45 31.2087 56.33 31.2087 54.89C31.2087 53.45 30.8987 52.34 30.2787 51.56C29.6587 50.76 28.8087 50.36 27.7287 50.36ZM60.0839 59.48C60.0839 59.98 59.9739 60.37 59.7539 60.65C59.5539 60.91 59.2239 61.16 58.7639 61.4C58.5039 61.56 58.1739 61.71 57.7739 61.85C57.3939 61.97 56.9639 62.07 56.4839 62.15C56.0239 62.25 55.5439 62.33 55.0439 62.39C54.5439 62.45 54.0439 62.48 53.5439 62.48C52.1239 62.48 50.8039 62.3 49.5839 61.94C48.3839 61.56 47.3339 60.98 46.4339 60.2C45.5539 59.42 44.8639 58.43 44.3639 57.23C43.8639 56.03 43.6139 54.6 43.6139 52.94C43.6139 51.36 43.8639 49.97 44.3639 48.77C44.8839 47.55 45.5839 46.54 46.4639 45.74C47.3639 44.94 48.4039 44.34 49.5839 43.94C50.7639 43.52 52.0339 43.31 53.3939 43.31C54.2939 43.31 55.1039 43.39 55.8239 43.55C56.5639 43.69 57.1939 43.89 57.7139 44.15C58.2539 44.39 58.6639 44.69 58.9439 45.05C59.2239 45.39 59.3639 45.75 59.3639 46.13C59.3639 46.53 59.2539 46.88 59.0339 47.18C58.8139 47.48 58.5639 47.71 58.2839 47.87C57.7639 47.53 57.1339 47.22 56.3939 46.94C55.6539 46.64 54.7439 46.49 53.6639 46.49C52.7839 46.49 51.9739 46.64 51.2339 46.94C50.4939 47.22 49.8539 47.63 49.3139 48.17C48.7939 48.71 48.3839 49.38 48.0839 50.18C47.7839 50.98 47.6339 51.89 47.6339 52.91C47.6339 54.01 47.7839 54.96 48.0839 55.76C48.3839 56.56 48.7939 57.23 49.3139 57.77C49.8539 58.29 50.4839 58.68 51.2039 58.94C51.9439 59.18 52.7439 59.3 53.6039 59.3C54.1839 59.3 54.7139 59.25 55.1939 59.15C55.6739 59.05 56.0439 58.93 56.3039 58.79V54.62H52.4639C52.3639 54.46 52.2739 54.25 52.1939 53.99C52.1139 53.73 52.0739 53.44 52.0739 53.12C52.0739 52.6 52.1939 52.21 52.4339 51.95C52.6939 51.69 53.0239 51.56 53.4239 51.56H58.4639C58.9639 51.56 59.3539 51.7 59.6339 51.98C59.9339 52.26 60.0839 52.65 60.0839 53.15V59.48ZM67.5936 61.97C67.4136 62.01 67.1736 62.06 66.8736 62.12C66.5736 62.18 66.2336 62.21 65.8536 62.21C65.1536 62.21 64.6336 62.08 64.2936 61.82C63.9536 61.56 63.7836 61.1 63.7836 60.44V50.93C63.7836 50.41 63.9036 49.97 64.1436 49.61C64.3836 49.25 64.7336 48.93 65.1936 48.65C65.8136 48.27 66.5736 47.96 67.4736 47.72C68.3936 47.48 69.3836 47.36 70.4436 47.36C72.3436 47.36 73.2936 47.95 73.2936 49.13C73.2936 49.41 73.2436 49.68 73.1436 49.94C73.0636 50.18 72.9736 50.38 72.8736 50.54C72.4136 50.44 71.8436 50.39 71.1636 50.39C70.4636 50.39 69.8036 50.47 69.1836 50.63C68.5636 50.79 68.0336 50.99 67.5936 51.23V61.97ZM78.3579 56.6C78.6379 57.62 79.1579 58.36 79.9179 58.82C80.6779 59.28 81.6179 59.51 82.7379 59.51C83.5779 59.51 84.3479 59.39 85.0479 59.15C85.7679 58.89 86.3479 58.62 86.7879 58.34C87.0679 58.5 87.2979 58.72 87.4779 59C87.6579 59.28 87.7479 59.58 87.7479 59.9C87.7479 60.3 87.6079 60.66 87.3279 60.98C87.0679 61.28 86.6979 61.54 86.2179 61.76C85.7579 61.98 85.2079 62.15 84.5679 62.27C83.9279 62.39 83.2379 62.45 82.4979 62.45C81.3179 62.45 80.2379 62.29 79.2579 61.97C78.2979 61.65 77.4679 61.17 76.7679 60.53C76.0879 59.87 75.5479 59.06 75.1479 58.1C74.7679 57.14 74.5779 56.02 74.5779 54.74C74.5779 53.5 74.7679 52.42 75.1479 51.5C75.5279 50.58 76.0379 49.81 76.6779 49.19C77.3379 48.57 78.0979 48.11 78.9579 47.81C79.8179 47.51 80.7279 47.36 81.6879 47.36C82.6679 47.36 83.5679 47.52 84.3879 47.84C85.2079 48.14 85.9079 48.57 86.4879 49.13C87.0679 49.67 87.5179 50.33 87.8379 51.11C88.1779 51.87 88.3479 52.7 88.3479 53.6C88.3479 54.16 88.1979 54.58 87.8979 54.86C87.6179 55.14 87.2179 55.32 86.6979 55.4L78.3579 56.6ZM81.6879 50.21C80.7079 50.21 79.8879 50.54 79.2279 51.2C78.5679 51.84 78.1979 52.76 78.1179 53.96L84.7779 52.97C84.6979 52.23 84.4079 51.59 83.9079 51.05C83.4079 50.49 82.6679 50.21 81.6879 50.21ZM94.3833 56.6C94.6633 57.62 95.1833 58.36 95.9433 58.82C96.7033 59.28 97.6433 59.51 98.7633 59.51C99.6033 59.51 100.373 59.39 101.073 59.15C101.793 58.89 102.373 58.62 102.813 58.34C103.093 58.5 103.323 58.72 103.503 59C103.683 59.28 103.773 59.58 103.773 59.9C103.773 60.3 103.633 60.66 103.353 60.98C103.093 61.28 102.723 61.54 102.243 61.76C101.783 61.98 101.233 62.15 100.593 62.27C99.9533 62.39 99.2633 62.45 98.5233 62.45C97.3433 62.45 96.2633 62.29 95.2833 61.97C94.3233 61.65 93.4933 61.17 92.7933 60.53C92.1133 59.87 91.5733 59.06 91.1733 58.1C90.7933 57.14 90.6033 56.02 90.6033 54.74C90.6033 53.5 90.7933 52.42 91.1733 51.5C91.5533 50.58 92.0633 49.81 92.7033 49.19C93.3633 48.57 94.1233 48.11 94.9833 47.81C95.8433 47.51 96.7533 47.36 97.7133 47.36C98.6933 47.36 99.5933 47.52 100.413 47.84C101.233 48.14 101.933 48.57 102.513 49.13C103.093 49.67 103.543 50.33 103.863 51.11C104.203 51.87 104.373 52.7 104.373 53.6C104.373 54.16 104.223 54.58 103.923 54.86C103.643 55.14 103.243 55.32 102.723 55.4L94.3833 56.6ZM97.7133 50.21C96.7333 50.21 95.9133 50.54 95.2533 51.2C94.5933 51.84 94.2233 52.76 94.1433 53.96L100.803 52.97C100.723 52.23 100.433 51.59 99.9333 51.05C99.4333 50.49 98.6933 50.21 97.7133 50.21ZM116.739 52.85C116.739 51.99 116.489 51.36 115.989 50.96C115.509 50.56 114.849 50.36 114.009 50.36C113.429 50.36 112.889 50.43 112.389 50.57C111.909 50.71 111.489 50.89 111.129 51.11V61.97C110.949 62.01 110.709 62.06 110.409 62.12C110.109 62.18 109.769 62.21 109.389 62.21C108.689 62.21 108.169 62.08 107.829 61.82C107.489 61.56 107.319 61.1 107.319 60.44V50.81C107.319 50.33 107.419 49.94 107.619 49.64C107.819 49.34 108.129 49.05 108.549 48.77C109.129 48.37 109.899 48.04 110.859 47.78C111.819 47.5 112.879 47.36 114.039 47.36C116.099 47.36 117.689 47.82 118.809 48.74C119.949 49.64 120.519 50.97 120.519 52.73V61.97C120.359 62.01 120.119 62.06 119.799 62.12C119.499 62.18 119.169 62.21 118.809 62.21C118.089 62.21 117.559 62.08 117.219 61.82C116.899 61.56 116.739 61.1 116.739 60.44V52.85Z" fill="white"/>
</svg>
