<svg width="95" height="164" viewBox="0 0 95 164" fill="none" xmlns="http://www.w3.org/2000/svg">
<path d="M35.005 27.1007C8.35973 24.3919 11.7388 7.90069 15.6396 0C19.8077 7.62207 41.2518 11.8566 53.7783 14.3973C99.6875 23.7088 67.85 48.2506 68.7502 47.4041C78.6521 28.7811 35.005 27.9472 35.005 27.1007Z" fill="white"/>
<path d="M47.3609 58.5683C9.08316 54.8715 11.1688 37.9277 16.9963 29.9179C19.9408 40.269 42.1468 44.0891 52.8818 44.7052C87.4789 46.9233 84.1383 69.3142 78.6661 76.6104C68.0473 90.7687 35.1691 86.3735 34.7099 86.2945C8.94603 81.8583 11.7822 69.0426 15.1561 61.3409C37.2394 79.825 75.018 76.6104 76.9155 74.7948C88.105 64.0884 48.281 58.5683 47.3609 58.5683Z" fill="white"/>
<path d="M12.7351 122.128C12.7351 122.832 12.5591 123.464 12.2071 124.024C11.8551 124.568 11.2951 125 10.5271 125.32C11.4551 125.624 12.1431 126.088 12.5911 126.712C13.0551 127.336 13.2871 128.064 13.2871 128.896C13.2871 130.4 12.7431 131.512 11.6551 132.232C10.5831 132.936 9.03906 133.288 7.02306 133.288C6.39906 133.288 5.73506 133.256 5.03106 133.192C4.34306 133.128 3.70306 133.008 3.11106 132.832C2.37506 132.624 2.00706 132.2 2.00706 131.56V119.56C2.00706 119.288 2.07906 119.08 2.22306 118.936C2.38306 118.776 2.59906 118.656 2.87106 118.576C3.41506 118.4 4.01506 118.28 4.67106 118.216C5.34306 118.152 6.06306 118.12 6.83106 118.12C8.70306 118.12 10.1511 118.448 11.1751 119.104C12.2151 119.76 12.7351 120.768 12.7351 122.128ZM10.6711 128.824C10.6711 128.088 10.3991 127.512 9.85506 127.096C9.31106 126.664 8.52706 126.448 7.50306 126.448H4.52706V131.008C4.86306 131.088 5.26306 131.152 5.72706 131.2C6.19106 131.232 6.65506 131.248 7.11906 131.248C8.25506 131.248 9.12706 131.056 9.73506 130.672C10.3591 130.272 10.6711 129.656 10.6711 128.824ZM4.52706 124.504H7.38306C8.29506 124.504 8.98306 124.304 9.44706 123.904C9.91106 123.504 10.1431 122.96 10.1431 122.272C10.1431 120.864 9.03906 120.16 6.83106 120.16C6.36706 120.16 5.94306 120.176 5.55906 120.208C5.17506 120.24 4.83106 120.28 4.52706 120.328V124.504ZM24.6274 129.352H18.7714L17.5954 133.024C17.4514 133.088 17.2994 133.136 17.1394 133.168C16.9794 133.2 16.7874 133.216 16.5634 133.216C16.1634 133.216 15.8354 133.128 15.5794 132.952C15.3234 132.776 15.1954 132.512 15.1954 132.16C15.1954 131.984 15.2194 131.816 15.2674 131.656C15.3154 131.48 15.3794 131.288 15.4594 131.08C15.6674 130.408 15.9554 129.544 16.3234 128.488C16.7074 127.416 17.1074 126.288 17.5234 125.104C17.9554 123.92 18.3874 122.76 18.8194 121.624C19.2514 120.472 19.6274 119.488 19.9474 118.672C20.1074 118.576 20.3554 118.488 20.6914 118.408C21.0274 118.312 21.3714 118.264 21.7234 118.264C22.1874 118.264 22.6034 118.328 22.9714 118.456C23.3394 118.584 23.5874 118.808 23.7154 119.128C24.0674 120.04 24.4514 121.08 24.8674 122.248C25.2834 123.4 25.6994 124.592 26.1154 125.824C26.5314 127.056 26.9314 128.264 27.3154 129.448C27.6994 130.632 28.0434 131.704 28.3474 132.664C28.2034 132.824 28.0114 132.952 27.7714 133.048C27.5474 133.16 27.2754 133.216 26.9554 133.216C26.5234 133.216 26.2114 133.136 26.0194 132.976C25.8274 132.8 25.6674 132.512 25.5394 132.112L24.6274 129.352ZM21.6994 120.496C21.5394 120.928 21.3634 121.416 21.1714 121.96C20.9794 122.504 20.7794 123.08 20.5714 123.688C20.3634 124.28 20.1554 124.888 19.9474 125.512C19.7394 126.12 19.5394 126.712 19.3474 127.288H24.0754C23.8674 126.648 23.6514 126.008 23.4274 125.368C23.2194 124.712 23.0114 124.088 22.8034 123.496C22.6114 122.904 22.4274 122.352 22.2514 121.84C22.0754 121.312 21.9314 120.864 21.8194 120.496H21.6994ZM33.5209 132.952C33.3929 133 33.2249 133.04 33.0169 133.072C32.8089 133.12 32.5769 133.144 32.3209 133.144C31.8249 133.144 31.4649 133.056 31.2409 132.88C31.0329 132.688 30.9289 132.376 30.9289 131.944V119.56C30.9289 119.288 31.0009 119.08 31.1449 118.936C31.3049 118.776 31.5209 118.656 31.7929 118.576C32.2889 118.4 32.8809 118.28 33.5689 118.216C34.2569 118.152 34.9449 118.12 35.6329 118.12C37.7129 118.12 39.2569 118.544 40.2649 119.392C41.2889 120.224 41.8009 121.4 41.8009 122.92C41.8009 123.976 41.5209 124.88 40.9609 125.632C40.4169 126.368 39.6329 126.92 38.6089 127.288C38.9929 127.768 39.3689 128.248 39.7369 128.728C40.1049 129.192 40.4489 129.64 40.7689 130.072C41.1049 130.488 41.4009 130.872 41.6569 131.224C41.9289 131.56 42.1449 131.84 42.3049 132.064C42.2249 132.432 42.0489 132.712 41.7769 132.904C41.5049 133.096 41.2089 133.192 40.8889 133.192C40.5049 133.192 40.2009 133.104 39.9769 132.928C39.7529 132.736 39.5289 132.48 39.3049 132.16L36.2089 127.696H33.5209V132.952ZM35.8249 125.632C36.8649 125.632 37.6889 125.408 38.2969 124.96C38.9049 124.512 39.2089 123.832 39.2089 122.92C39.2089 122.024 38.8969 121.352 38.2729 120.904C37.6649 120.456 36.7609 120.232 35.5609 120.232C35.1929 120.232 34.8249 120.248 34.4569 120.28C34.1049 120.312 33.7849 120.352 33.4969 120.4V125.632H35.8249ZM50.4914 120.544V132.952C50.3794 133 50.2114 133.04 49.9874 133.072C49.7794 133.12 49.5554 133.144 49.3154 133.144C48.8194 133.144 48.4674 133.056 48.2594 132.88C48.0514 132.688 47.9474 132.376 47.9474 131.944V120.544H43.6994C43.6194 120.432 43.5474 120.288 43.4834 120.112C43.4354 119.936 43.4114 119.736 43.4114 119.512C43.4114 119.16 43.4914 118.896 43.6514 118.72C43.8274 118.528 44.0594 118.432 44.3474 118.432H54.7874C54.8514 118.528 54.9074 118.664 54.9554 118.84C55.0194 119.016 55.0514 119.208 55.0514 119.416C55.0514 120.168 54.7394 120.544 54.1154 120.544H50.4914ZM69.3608 127.888C69.3608 128.704 69.2248 129.448 68.9528 130.12C68.6968 130.792 68.3128 131.368 67.8008 131.848C67.3048 132.328 66.6888 132.696 65.9528 132.952C65.2328 133.208 64.4008 133.336 63.4568 133.336C62.5288 133.336 61.6968 133.208 60.9608 132.952C60.2408 132.696 59.6248 132.328 59.1128 131.848C58.6168 131.368 58.2328 130.792 57.9608 130.12C57.7048 129.448 57.5768 128.704 57.5768 127.888V118.432C57.6888 118.4 57.8568 118.368 58.0808 118.336C58.3048 118.288 58.5368 118.264 58.7768 118.264C59.2408 118.264 59.5848 118.352 59.8088 118.528C60.0328 118.704 60.1448 119.016 60.1448 119.464V127.744C60.1448 128.88 60.4568 129.744 61.0808 130.336C61.7208 130.928 62.5128 131.224 63.4568 131.224C63.9368 131.224 64.3768 131.152 64.7768 131.008C65.1768 130.848 65.5288 130.624 65.8328 130.336C66.1368 130.048 66.3688 129.688 66.5288 129.256C66.7048 128.824 66.7928 128.32 66.7928 127.744V118.432C66.9048 118.4 67.0728 118.368 67.2968 118.336C67.5208 118.288 67.7528 118.264 67.9928 118.264C68.4568 118.264 68.8008 118.352 69.0248 118.528C69.2488 118.704 69.3608 119.016 69.3608 119.464V127.888ZM82.0645 129.256C81.9365 129.368 81.7605 129.464 81.5365 129.544C81.3125 129.624 81.0565 129.664 80.7685 129.664C80.4325 129.664 80.1365 129.616 79.8805 129.52C79.6405 129.408 79.4725 129.24 79.3765 129.016C78.6405 127.32 78.0005 125.816 77.4565 124.504C76.9285 123.192 76.5045 122.096 76.1845 121.216H76.0645C76.0165 122.352 75.9685 123.4 75.9205 124.36C75.8885 125.304 75.8485 126.232 75.8005 127.144C75.7525 128.056 75.6965 128.984 75.6325 129.928C75.5845 130.872 75.5285 131.888 75.4645 132.976C75.3365 133.024 75.1685 133.064 74.9605 133.096C74.7685 133.144 74.5605 133.168 74.3365 133.168C73.4725 133.168 73.0405 132.816 73.0405 132.112C73.0405 131.904 73.0485 131.536 73.0645 131.008C73.0965 130.48 73.1285 129.856 73.1605 129.136C73.2085 128.4 73.2565 127.592 73.3045 126.712C73.3685 125.832 73.4325 124.944 73.4965 124.048C73.5605 123.136 73.6245 122.248 73.6885 121.384C73.7525 120.504 73.8165 119.696 73.8805 118.96C74.0085 118.832 74.2165 118.696 74.5045 118.552C74.8085 118.408 75.1765 118.336 75.6085 118.336C76.1205 118.336 76.5285 118.432 76.8325 118.624C77.1365 118.8 77.3765 119.072 77.5525 119.44C77.8085 120 78.0725 120.608 78.3445 121.264C78.6165 121.904 78.8885 122.56 79.1605 123.232C79.4325 123.888 79.6965 124.544 79.9525 125.2C80.2085 125.856 80.4565 126.472 80.6965 127.048H80.8165C81.1205 126.248 81.4245 125.456 81.7285 124.672C82.0485 123.888 82.3525 123.136 82.6405 122.416C82.9445 121.696 83.2245 121.016 83.4805 120.376C83.7525 119.736 84.0005 119.16 84.2245 118.648C84.4005 118.568 84.6165 118.496 84.8725 118.432C85.1285 118.368 85.3925 118.336 85.6645 118.336C86.1925 118.336 86.5845 118.416 86.8405 118.576C87.1125 118.736 87.2885 118.968 87.3685 119.272C87.4325 119.56 87.5045 120.04 87.5845 120.712C87.6645 121.368 87.7445 122.128 87.8245 122.992C87.9045 123.856 87.9845 124.776 88.0645 125.752C88.1445 126.712 88.2165 127.648 88.2805 128.56C88.3445 129.456 88.4005 130.288 88.4485 131.056C88.4965 131.808 88.5285 132.4 88.5445 132.832C88.3685 132.944 88.1765 133.024 87.9685 133.072C87.7765 133.136 87.5445 133.168 87.2725 133.168C86.9365 133.168 86.6405 133.096 86.3845 132.952C86.1445 132.808 86.0085 132.536 85.9765 132.136C85.9125 131.048 85.8485 129.976 85.7845 128.92C85.7365 127.864 85.6885 126.864 85.6405 125.92C85.5925 124.976 85.5445 124.104 85.4965 123.304C85.4645 122.504 85.4325 121.824 85.4005 121.264H85.3045C85.0005 122.08 84.5845 123.12 84.0565 124.384C83.5445 125.648 82.8805 127.272 82.0645 129.256ZM8.76625 158.024C8.35025 158.024 8.01425 157.896 7.75825 157.64C7.50225 157.384 7.37425 157.048 7.37425 156.632V144.8C7.37425 144.384 7.50225 144.056 7.75825 143.816C8.01425 143.56 8.35025 143.432 8.76625 143.432H16.7103C16.7903 143.528 16.8543 143.664 16.9023 143.84C16.9663 144.016 16.9983 144.208 16.9983 144.416C16.9983 144.768 16.9103 145.04 16.7343 145.232C16.5743 145.424 16.3503 145.52 16.0623 145.52H9.91825V149.504H15.9903C16.0703 149.6 16.1343 149.736 16.1823 149.912C16.2463 150.088 16.2783 150.28 16.2783 150.488C16.2783 150.856 16.1903 151.128 16.0143 151.304C15.8543 151.48 15.6303 151.568 15.3423 151.568H9.91825V155.936H16.8303C16.8943 156.032 16.9583 156.168 17.0223 156.344C17.0863 156.52 17.1183 156.712 17.1183 156.92C17.1183 157.288 17.0303 157.568 16.8543 157.76C16.6943 157.936 16.4703 158.024 16.1823 158.024H8.76625ZM32.2654 157.664C32.0894 157.808 31.8654 157.928 31.5934 158.024C31.3214 158.12 31.0014 158.168 30.6334 158.168C30.1854 158.168 29.7934 158.088 29.4574 157.928C29.1374 157.752 28.8414 157.432 28.5694 156.968L24.6094 150.08C24.4334 149.776 24.2494 149.456 24.0574 149.12C23.8814 148.784 23.7054 148.448 23.5294 148.112C23.3694 147.776 23.2094 147.456 23.0494 147.152C22.9054 146.832 22.7774 146.552 22.6654 146.312L22.5454 146.336C22.6254 147.168 22.6814 148.064 22.7134 149.024C22.7454 149.968 22.7614 150.864 22.7614 151.712V157.976C22.6494 158.008 22.4814 158.04 22.2574 158.072C22.0494 158.12 21.8334 158.144 21.6094 158.144C21.1294 158.144 20.7774 158.056 20.5534 157.88C20.3454 157.704 20.2414 157.408 20.2414 156.992V143.84C20.4014 143.664 20.6254 143.528 20.9134 143.432C21.2174 143.32 21.5374 143.264 21.8734 143.264C22.3214 143.264 22.7134 143.344 23.0494 143.504C23.3854 143.664 23.6894 143.976 23.9614 144.44L27.9454 151.352C28.1214 151.656 28.2974 151.976 28.4734 152.312C28.6494 152.648 28.8174 152.984 28.9774 153.32C29.1534 153.656 29.3134 153.984 29.4574 154.304C29.6174 154.608 29.7534 154.88 29.8654 155.12L29.9614 155.096C29.8334 153.88 29.7614 152.68 29.7454 151.496C29.7294 150.296 29.7214 149.128 29.7214 147.992V143.432C29.8494 143.4 30.0174 143.368 30.2254 143.336C30.4334 143.288 30.6574 143.264 30.8974 143.264C31.3774 143.264 31.7214 143.352 31.9294 143.528C32.1534 143.704 32.2654 144 32.2654 144.416V157.664ZM37.5944 158.024C37.1784 158.024 36.8424 157.896 36.5864 157.64C36.3304 157.384 36.2024 157.048 36.2024 156.632V144.8C36.2024 144.384 36.3304 144.056 36.5864 143.816C36.8424 143.56 37.1784 143.432 37.5944 143.432H45.5384C45.6184 143.528 45.6824 143.664 45.7304 143.84C45.7944 144.016 45.8264 144.208 45.8264 144.416C45.8264 144.768 45.7384 145.04 45.5624 145.232C45.4024 145.424 45.1784 145.52 44.8904 145.52H38.7464V149.504H44.8184C44.8984 149.6 44.9624 149.736 45.0104 149.912C45.0744 150.088 45.1064 150.28 45.1064 150.488C45.1064 150.856 45.0184 151.128 44.8424 151.304C44.6824 151.48 44.4584 151.568 44.1704 151.568H38.7464V155.936H45.6584C45.7224 156.032 45.7864 156.168 45.8504 156.344C45.9144 156.52 45.9464 156.712 45.9464 156.92C45.9464 157.288 45.8584 157.568 45.6824 157.76C45.5224 157.936 45.2984 158.024 45.0104 158.024H37.5944ZM51.6616 157.952C51.5336 158 51.3656 158.04 51.1576 158.072C50.9496 158.12 50.7176 158.144 50.4616 158.144C49.9656 158.144 49.6056 158.056 49.3816 157.88C49.1736 157.688 49.0696 157.376 49.0696 156.944V144.56C49.0696 144.288 49.1416 144.08 49.2856 143.936C49.4456 143.776 49.6616 143.656 49.9336 143.576C50.4296 143.4 51.0216 143.28 51.7096 143.216C52.3976 143.152 53.0856 143.12 53.7736 143.12C55.8536 143.12 57.3976 143.544 58.4056 144.392C59.4296 145.224 59.9416 146.4 59.9416 147.92C59.9416 148.976 59.6616 149.88 59.1016 150.632C58.5576 151.368 57.7736 151.92 56.7496 152.288C57.1336 152.768 57.5096 153.248 57.8776 153.728C58.2456 154.192 58.5896 154.64 58.9096 155.072C59.2456 155.488 59.5416 155.872 59.7976 156.224C60.0696 156.56 60.2856 156.84 60.4456 157.064C60.3656 157.432 60.1896 157.712 59.9176 157.904C59.6456 158.096 59.3496 158.192 59.0296 158.192C58.6456 158.192 58.3416 158.104 58.1176 157.928C57.8936 157.736 57.6696 157.48 57.4456 157.16L54.3496 152.696H51.6616V157.952ZM53.9656 150.632C55.0056 150.632 55.8296 150.408 56.4376 149.96C57.0456 149.512 57.3496 148.832 57.3496 147.92C57.3496 147.024 57.0376 146.352 56.4136 145.904C55.8056 145.456 54.9016 145.232 53.7016 145.232C53.3336 145.232 52.9656 145.248 52.5976 145.28C52.2456 145.312 51.9256 145.352 51.6376 145.4V150.632H53.9656ZM75.1555 156.152C75.1555 156.488 75.0675 156.768 74.8915 156.992C74.7315 157.2 74.4755 157.392 74.1235 157.568C73.7075 157.792 73.1315 157.976 72.3955 158.12C71.6595 158.264 70.9075 158.336 70.1395 158.336C69.0035 158.336 67.9555 158.192 66.9955 157.904C66.0515 157.6 65.2355 157.136 64.5475 156.512C63.8595 155.888 63.3235 155.096 62.9395 154.136C62.5555 153.176 62.3635 152.04 62.3635 150.728C62.3635 149.448 62.5635 148.328 62.9635 147.368C63.3635 146.408 63.8995 145.616 64.5715 144.992C65.2595 144.352 66.0595 143.872 66.9715 143.552C67.8995 143.232 68.8835 143.072 69.9235 143.072C70.6115 143.072 71.2435 143.136 71.8195 143.264C72.3955 143.376 72.8915 143.528 73.3075 143.72C73.7235 143.912 74.0435 144.136 74.2675 144.392C74.4915 144.632 74.6035 144.888 74.6035 145.16C74.6035 145.432 74.5315 145.672 74.3875 145.88C74.2435 146.072 74.0675 146.224 73.8595 146.336C73.4275 146.064 72.9155 145.808 72.3235 145.568C71.7315 145.328 70.9875 145.208 70.0915 145.208C69.3715 145.208 68.6995 145.328 68.0755 145.568C67.4515 145.808 66.9075 146.16 66.4435 146.624C65.9955 147.088 65.6435 147.664 65.3875 148.352C65.1315 149.04 65.0035 149.832 65.0035 150.728C65.0035 151.672 65.1315 152.496 65.3875 153.2C65.6595 153.888 66.0195 154.456 66.4675 154.904C66.9315 155.352 67.4755 155.688 68.0995 155.912C68.7395 156.12 69.4275 156.224 70.1635 156.224C70.6755 156.224 71.1555 156.184 71.6035 156.104C72.0515 156.008 72.3955 155.896 72.6355 155.768V151.928H69.3235C69.2435 151.832 69.1715 151.696 69.1075 151.52C69.0595 151.328 69.0355 151.136 69.0355 150.944C69.0355 150.576 69.1155 150.304 69.2755 150.128C69.4515 149.952 69.6835 149.864 69.9715 149.864H74.0035C74.3395 149.864 74.6115 149.968 74.8195 150.176C75.0435 150.368 75.1555 150.648 75.1555 151.016V156.152ZM89.0504 144.368C89.0504 144.72 88.6504 145.616 87.8504 147.056C87.0504 148.48 85.8744 150.376 84.3224 152.744V157.952C84.1944 158 84.0184 158.04 83.7944 158.072C83.5864 158.12 83.3704 158.144 83.1464 158.144C82.6504 158.144 82.2984 158.056 82.0904 157.88C81.8824 157.688 81.7784 157.384 81.7784 156.968V152.768C81.3464 152.128 80.8904 151.44 80.4104 150.704C79.9304 149.952 79.4584 149.2 78.9944 148.448C78.5304 147.68 78.0904 146.936 77.6744 146.216C77.2744 145.48 76.9304 144.8 76.6424 144.176C76.7384 143.952 76.8984 143.752 77.1224 143.576C77.3464 143.384 77.6424 143.288 78.0104 143.288C78.3944 143.288 78.6984 143.384 78.9224 143.576C79.1464 143.752 79.3784 144.056 79.6184 144.488C79.8104 144.824 80.0584 145.272 80.3624 145.832C80.6664 146.392 80.9864 146.976 81.3224 147.584C81.6584 148.176 81.9784 148.744 82.2824 149.288C82.5864 149.816 82.8264 150.224 83.0024 150.512H83.0984C83.4504 149.872 83.7864 149.264 84.1064 148.688C84.4264 148.096 84.7304 147.52 85.0184 146.96C85.3064 146.4 85.5944 145.84 85.8824 145.28C86.1704 144.72 86.4584 144.144 86.7464 143.552C86.8904 143.472 87.0584 143.408 87.2504 143.36C87.4584 143.312 87.6504 143.288 87.8264 143.288C88.1944 143.288 88.4904 143.384 88.7144 143.576C88.9384 143.768 89.0504 144.032 89.0504 144.368Z" fill="white"/>
</svg>
