<svg width="100" height="133" viewBox="0 0 100 133" fill="none" xmlns="http://www.w3.org/2000/svg">
<path opacity="0.8" fill-rule="evenodd" clip-rule="evenodd" d="M32.143 61.75V39.2857C32.143 32.6553 34.7769 26.2965 39.4653 21.6081C44.1537 16.9197 50.5126 14.2858 57.143 14.2858C63.7734 14.2858 70.1322 16.9197 74.8206 21.6081C79.509 26.2965 82.143 32.6553 82.143 39.2857V61.75C92.4715 64.8214 100 74.3929 100 85.7143V107.143C100 113.773 97.3662 120.132 92.6778 124.821C87.9894 129.509 81.6305 132.143 75.0001 132.143H39.2859C32.6555 132.143 26.2966 129.509 21.6082 124.821C16.9198 120.132 14.2859 113.773 14.2859 107.143V85.7143C14.2868 80.33 16.025 75.0897 19.2422 70.7722C22.4594 66.4547 26.9838 63.2906 32.143 61.75ZM42.8573 60.7143V39.2857C42.8573 35.4969 44.3624 31.8633 47.0415 29.1842C49.7206 26.5051 53.3542 25 57.143 25C60.9318 25 64.5654 26.5051 67.2445 29.1842C69.9236 31.8633 71.4287 35.4969 71.4287 39.2857V60.7143H42.8573Z" fill="#4D6D8A" fill-opacity="0.35"/>
<path fill-rule="evenodd" clip-rule="evenodd" d="M28.5715 82.1429C28.5715 85.9317 30.0766 89.5653 32.7557 92.2444C35.4348 94.9235 39.0684 96.4286 42.8572 96.4286C46.646 96.4286 50.2797 94.9235 52.9587 92.2444C55.6378 89.5653 57.1429 85.9317 57.1429 82.1429C57.1429 78.3541 55.6378 74.7205 52.9587 72.0414C50.2797 69.3623 46.646 67.8572 42.8572 67.8572C39.0684 67.8572 35.4348 69.3623 32.7557 72.0414C30.0766 74.7205 28.5715 78.3541 28.5715 82.1429ZM50.0001 82.1429C50.0001 84.0373 49.2475 85.8541 47.908 87.1936C46.5684 88.5332 44.7516 89.2857 42.8572 89.2857C40.9628 89.2857 39.146 88.5332 37.8065 87.1936C36.4669 85.8541 35.7144 84.0373 35.7144 82.1429C35.7144 80.2485 36.4669 78.4317 37.8065 77.0921C39.146 75.7526 40.9628 75 42.8572 75C44.7516 75 46.5684 75.7526 47.908 77.0921C49.2475 78.4317 50.0001 80.2485 50.0001 82.1429Z" fill="#4D6D8A" fill-opacity="0.7"/>
<path fill-rule="evenodd" clip-rule="evenodd" d="M60.7142 46.4286H25C18.3696 46.4286 12.0107 49.0625 7.32233 53.7509C2.63392 58.4393 0 64.7982 0 71.4286V92.8571C0 99.4875 2.63392 105.846 7.32233 110.535C12.0107 115.223 18.3696 117.857 25 117.857H60.7142C67.3446 117.857 73.7035 115.223 78.3919 110.535C83.0803 105.846 85.7142 99.4875 85.7142 92.8571V71.4286C85.7142 64.7982 83.0803 58.4393 78.3919 53.7509C73.7035 49.0625 67.3446 46.4286 60.7142 46.4286ZM7.14285 71.4286C7.14285 66.6926 9.02422 62.1505 12.3731 58.8017C15.7219 55.4528 20.264 53.5714 25 53.5714H60.7142C65.4502 53.5714 69.9923 55.4528 73.3411 58.8017C76.69 62.1505 78.5714 66.6926 78.5714 71.4286V92.8571C78.5714 97.5931 76.69 102.135 73.3411 105.484C69.9923 108.833 65.4502 110.714 60.7142 110.714H25C20.264 110.714 15.7219 108.833 12.3731 105.484C9.02422 102.135 7.14285 97.5931 7.14285 92.8571V71.4286Z" fill="#4D6D8A" fill-opacity="0.7"/>
<path d="M24.9999 50C24.9999 50.9472 24.6236 51.8556 23.9539 52.5253C23.2841 53.1951 22.3757 53.5714 21.4285 53.5714C20.4813 53.5714 19.5729 53.1951 18.9031 52.5253C18.2333 51.8556 17.8571 50.9472 17.8571 50V25C17.8571 21.7169 18.5037 18.466 19.7601 15.4329C21.0164 12.3998 22.8579 9.64379 25.1794 7.32232C27.5008 5.00086 30.2568 3.15938 33.29 1.90301C36.3231 0.646643 39.574 0 42.857 0C46.1401 0 49.391 0.646643 52.4241 1.90301C55.4572 3.15938 58.2132 5.00086 60.5347 7.32232C62.8561 9.64379 64.6976 12.3998 65.954 15.4329C67.2104 18.466 67.857 21.7169 67.857 25V50C67.857 50.9472 67.4807 51.8556 66.811 52.5253C66.1412 53.1951 65.2328 53.5714 64.2856 53.5714C63.3384 53.5714 62.43 53.1951 61.7602 52.5253C61.0904 51.8556 60.7142 50.9472 60.7142 50V25C60.7142 20.264 58.8328 15.7219 55.4839 12.3731C52.1351 9.02422 47.593 7.14285 42.857 7.14285C38.121 7.14285 33.579 9.02422 30.2301 12.3731C26.8813 15.7219 24.9999 20.264 24.9999 25V50Z" fill="#4D6D8A" fill-opacity="0.7"/>
</svg>
