<svg width="80" height="106" viewBox="0 0 80 106" fill="none" xmlns="http://www.w3.org/2000/svg">
<path opacity="0.8" fill-rule="evenodd" clip-rule="evenodd" d="M34.2856 48.5714H59.9998C65.3042 48.5714 70.3912 50.6785 74.142 54.4293C77.8927 58.18 79.9998 63.2671 79.9998 68.5714V85.7142C79.9998 91.0185 77.8927 96.1056 74.142 99.8563C70.3912 103.607 65.3042 105.714 59.9998 105.714H31.4284C26.1241 105.714 21.037 103.607 17.2863 99.8563C13.5356 96.1056 11.4285 91.0185 11.4285 85.7142V68.5714C11.4292 64.2639 12.8198 60.0717 15.3935 56.6177C17.9673 53.1638 21.5868 50.6324 25.7142 49.4V32.8571C25.7142 21.1029 34.5827 11.4286 45.7141 11.4286C56.8456 11.4286 65.7141 21.1029 65.7141 32.8571V34.2857C65.7141 35.4223 65.2626 36.5124 64.4589 37.3162C63.6551 38.1199 62.5651 38.5714 61.4284 38.5714C60.2918 38.5714 59.2017 38.1199 58.398 37.3162C57.5942 36.5124 57.1427 35.4223 57.1427 34.2857V32.8571C57.1427 25.6743 51.9427 20 45.7141 20C39.4856 20 34.2856 25.6743 34.2856 32.8571V48.5714Z" fill="#4D6D8A" fill-opacity="0.35"/>
<path fill-rule="evenodd" clip-rule="evenodd" d="M22.8569 65.7142C22.8569 68.7452 24.061 71.6521 26.2043 73.7954C28.3476 75.9387 31.2544 77.1428 34.2855 77.1428C37.3165 77.1428 40.2234 75.9387 42.3667 73.7954C44.51 71.6521 45.7141 68.7452 45.7141 65.7142C45.7141 62.6832 44.51 59.7763 42.3667 57.633C40.2234 55.4897 37.3165 54.2856 34.2855 54.2856C31.2544 54.2856 28.3476 55.4897 26.2043 57.633C24.061 59.7763 22.8569 62.6832 22.8569 65.7142ZM39.9998 65.7142C39.9998 67.2297 39.3977 68.6832 38.3261 69.7548C37.2545 70.8264 35.801 71.4285 34.2855 71.4285C32.77 71.4285 31.3165 70.8264 30.2449 69.7548C29.1733 68.6832 28.5712 67.2297 28.5712 65.7142C28.5712 64.1987 29.1733 62.7452 30.2449 61.6736C31.3165 60.602 32.77 59.9999 34.2855 59.9999C35.801 59.9999 37.2545 60.602 38.3261 61.6736C39.3977 62.7452 39.9998 64.1987 39.9998 65.7142Z" fill="#4D6D8A" fill-opacity="0.7"/>
<path fill-rule="evenodd" clip-rule="evenodd" d="M48.5714 37.1428H20C14.6957 37.1428 9.60858 39.25 5.85786 43.0007C2.10714 46.7514 0 51.8385 0 57.1428V74.2856C0 79.59 2.10714 84.677 5.85786 88.4278C9.60858 92.1785 14.6957 94.2856 20 94.2856H48.5714C53.8757 94.2856 58.9628 92.1785 62.7135 88.4278C66.4642 84.677 68.5714 79.59 68.5714 74.2856V57.1428C68.5714 51.8385 66.4642 46.7514 62.7135 43.0007C58.9628 39.25 53.8757 37.1428 48.5714 37.1428ZM5.71428 57.1428C5.71428 53.354 7.21938 49.7204 9.89846 47.0413C12.5776 44.3622 16.2112 42.8571 20 42.8571H48.5714C52.3602 42.8571 55.9938 44.3622 58.6729 47.0413C61.352 49.7204 62.8571 53.354 62.8571 57.1428V74.2856C62.8571 78.0744 61.352 81.7081 58.6729 84.3871C55.9938 87.0662 52.3602 88.5713 48.5714 88.5713H20C16.2112 88.5713 12.5776 87.0662 9.89846 84.3871C7.21938 81.7081 5.71428 78.0744 5.71428 74.2856V57.1428Z" fill="#4D6D8A" fill-opacity="0.7"/>
<path d="M19.9999 40C19.9999 40.7577 19.6989 41.4844 19.1631 42.0203C18.6273 42.5561 17.9005 42.8571 17.1428 42.8571C16.385 42.8571 15.6583 42.5561 15.1225 42.0203C14.5867 41.4844 14.2856 40.7577 14.2856 40V20C14.2856 17.3735 14.803 14.7728 15.8081 12.3463C16.8131 9.91981 18.2863 7.71503 20.1435 5.85786C22.0007 4.00069 24.2055 2.5275 26.632 1.52241C29.0585 0.517315 31.6592 0 34.2856 0C36.9121 0 39.5128 0.517315 41.9393 1.52241C44.3658 2.5275 46.5706 4.00069 48.4277 5.85786C50.2849 7.71503 51.7581 9.91981 52.7632 12.3463C53.7683 14.7728 54.2856 17.3735 54.2856 20V25.7143C54.2856 26.472 53.9846 27.1987 53.4488 27.7346C52.9129 28.2704 52.1862 28.5714 51.4285 28.5714C50.6707 28.5714 49.944 28.2704 49.4082 27.7346C48.8723 27.1987 48.5713 26.472 48.5713 25.7143V20C48.5713 16.2112 47.0662 12.5776 44.3871 9.89846C41.708 7.21938 38.0744 5.71428 34.2856 5.71428C30.4968 5.71428 26.8632 7.21938 24.1841 9.89846C21.505 12.5776 19.9999 16.2112 19.9999 20V40Z" fill="#4D6D8A" fill-opacity="0.7"/>
</svg>
